<svg width="184" height="179" viewBox="0 0 184 179" fill="none" xmlns="http://www.w3.org/2000/svg">
<path d="M155.917 172.046C162.979 172.046 168.704 166.502 168.704 159.663C168.704 152.825 162.979 147.28 155.917 147.28C148.855 147.28 143.13 152.825 143.13 159.663C143.13 166.502 148.855 172.046 155.917 172.046Z" fill="black" stroke="black" stroke-width="12" stroke-linecap="round" stroke-linejoin="round"/>
<path d="M70.671 172.046C77.7328 172.046 83.4579 166.502 83.4579 159.663C83.4579 152.825 77.7328 147.28 70.671 147.28C63.6089 147.28 57.8841 152.825 57.8841 159.663C57.8841 166.502 63.6089 172.046 70.671 172.046Z" fill="black" stroke="black" stroke-width="12" stroke-linecap="round" stroke-linejoin="round"/>
<path d="M32.3102 23.4521H177.229L160.18 114.261H49.3594L32.3102 23.4521ZM32.3102 23.4521C30.8894 17.9485 23.7856 6.94141 6.73633 6.94141" stroke="black" stroke-width="12" stroke-linecap="round" stroke-linejoin="round"/>
<path d="M160.18 114.262H49.3594H34.2774C19.0669 114.262 10.9986 120.711 10.9986 130.772C10.9986 140.834 19.0669 147.283 34.2774 147.283H155.917" stroke="black" stroke-width="12" stroke-linecap="round" stroke-linejoin="round"/>
</svg>
