<svg width="188" height="189" viewBox="0 0 188 189" fill="none" xmlns="http://www.w3.org/2000/svg">
<path fill-rule="evenodd" clip-rule="evenodd" d="M0 94.4932C0 42.649 42.0279 0.621094 93.8721 0.621094C145.716 0.621094 187.744 42.649 187.744 94.4932C187.744 146.337 145.716 188.365 93.8721 188.365C42.0279 188.365 0 146.337 0 94.4932ZM93.8721 12.6211C48.6553 12.6211 12 49.2764 12 94.4932C12 139.709 48.6554 176.365 93.8721 176.365C139.088 176.365 175.744 139.709 175.744 94.4932C175.744 49.2765 139.088 12.6211 93.8721 12.6211Z" fill="black"/>
<path fill-rule="evenodd" clip-rule="evenodd" d="M93.872 44.5576C96.0251 44.5576 98.0132 45.7113 99.0814 47.5808L134.23 109.091C134.748 109.998 135.021 111.024 135.021 112.068V175.054C135.021 178.368 132.335 181.054 129.021 181.054C125.707 181.054 123.021 178.368 123.021 175.054V113.661L93.872 62.651L64.7231 113.661V175.054C64.7231 178.368 62.0369 181.054 58.7231 181.054C55.4094 181.054 52.7231 178.368 52.7231 175.054V112.068C52.7231 111.024 52.9956 109.998 53.5137 109.091L88.6625 47.5808C89.7308 45.7113 91.7188 44.5576 93.872 44.5576Z" fill="black"/>
<path fill-rule="evenodd" clip-rule="evenodd" d="M54.2355 108.084C56.4334 105.607 60.2213 105.38 62.6998 107.574C62.7018 107.575 62.7038 107.577 62.7058 107.579L58.7231 112.066C62.7058 107.579 62.705 107.578 62.7042 107.578L62.7008 107.575L62.7067 107.58L62.7618 107.628C62.8161 107.675 62.9049 107.751 63.0252 107.852C63.2662 108.055 63.6314 108.356 64.0977 108.722C65.0367 109.46 66.353 110.438 67.8658 111.406C71.2023 113.54 74.3229 114.854 76.2975 114.854C78.272 114.854 81.3925 113.54 84.7291 111.406C86.2419 110.438 87.5583 109.46 88.4973 108.722C88.9636 108.356 89.3289 108.055 89.5698 107.852C89.6902 107.751 89.7789 107.675 89.8333 107.628L89.8884 107.58L89.8909 107.577C89.8924 107.576 89.8939 107.575 89.8954 107.573C92.1655 105.564 95.578 105.564 97.8482 107.573C97.8487 107.574 97.8491 107.574 97.8496 107.574L97.853 107.577C97.8535 107.578 97.854 107.578 97.8545 107.579L97.8554 107.58L97.9106 107.628C97.9649 107.675 98.0537 107.751 98.174 107.852C98.415 108.055 98.7802 108.356 99.2465 108.722C100.186 109.46 101.502 110.438 103.015 111.406C106.351 113.54 109.472 114.854 111.446 114.854C113.421 114.854 116.541 113.54 119.878 111.406C121.391 110.438 122.707 109.46 123.646 108.722C124.112 108.356 124.478 108.055 124.719 107.852C124.839 107.751 124.928 107.675 124.982 107.628L125.037 107.58L125.038 107.579C125.039 107.578 125.039 107.578 125.04 107.577C125.04 107.577 125.041 107.577 125.041 107.576C125.042 107.576 125.042 107.575 125.043 107.574C125.043 107.574 125.044 107.574 125.044 107.574C127.522 105.38 131.311 105.607 133.508 108.084C135.708 110.562 135.482 114.355 133.003 116.554L129.021 112.066C133.003 116.554 133.002 116.555 133.002 116.556L132.982 116.573L132.947 116.604C132.919 116.629 132.881 116.662 132.833 116.703C132.739 116.784 132.607 116.897 132.442 117.036C132.111 117.314 131.643 117.7 131.061 118.157C129.904 119.066 128.266 120.285 126.344 121.515C122.812 123.774 117.145 126.854 111.446 126.854C105.748 126.854 100.081 123.774 96.5488 121.515C95.5752 120.892 94.6744 120.272 93.8719 119.693C93.0695 120.272 92.1686 120.892 91.1951 121.515C87.6627 123.774 81.996 126.854 76.2975 126.854C70.5988 126.854 64.9322 123.774 61.3998 121.515C59.4781 120.285 57.8396 119.066 56.6823 118.157C56.1005 117.699 55.6323 117.314 55.3018 117.036C55.1364 116.897 55.005 116.784 54.9105 116.703C54.8633 116.662 54.8252 116.629 54.7968 116.604L54.7613 116.572L54.749 116.562L54.7422 116.556C54.7413 116.555 54.7404 116.554 58.7231 112.066L54.7404 116.554C52.262 114.354 52.036 110.562 54.2355 108.084Z" fill="black"/>
</svg>
