<svg width="221" height="179" viewBox="0 0 221 179" fill="none" xmlns="http://www.w3.org/2000/svg">
<path d="M6.74414 172.901V163.088C6.74414 125.152 36.3623 94.3994 72.8981 94.3994C109.434 94.3994 139.052 125.152 139.052 163.088V172.901" stroke="black" stroke-width="12" stroke-linecap="round"/>
<path d="M120.151 114.027C120.151 86.9306 141.307 64.9639 167.404 64.9639C193.501 64.9639 214.657 86.9306 214.657 114.027V118.934" stroke="black" stroke-width="12" stroke-linecap="round"/>
<path d="M72.8981 94.4011C93.7754 94.4011 110.7 76.8275 110.7 55.1502C110.7 33.4726 93.7754 15.8994 72.8981 15.8994C52.0205 15.8994 35.0958 33.4726 35.0958 55.1502C35.0958 76.8275 52.0205 94.4011 72.8981 94.4011Z" stroke="black" stroke-width="12" stroke-linecap="round" stroke-linejoin="round"/>
<path d="M167.404 64.9632C183.063 64.9632 195.756 51.7832 195.756 35.525C195.756 19.2669 183.063 6.08691 167.404 6.08691C151.745 6.08691 139.052 19.2669 139.052 35.525C139.052 51.7832 151.745 64.9632 167.404 64.9632Z" stroke="black" stroke-width="12" stroke-linecap="round" stroke-linejoin="round"/>
</svg>
