<svg width="190" height="175" viewBox="0 0 190 175" fill="none" xmlns="http://www.w3.org/2000/svg">
<path d="M171.539 6.13965H135.457L139.976 51.3364C139.976 51.3364 149.016 60.3757 162.575 60.3757C172.31 60.3757 178.939 55.7155 181.903 53.0873C183.085 52.0398 183.517 50.4407 183.258 48.8832L176.888 10.6716C176.453 8.05644 174.19 6.13965 171.539 6.13965Z" stroke="black" stroke-width="12"/>
<path d="M135.457 6.13965L139.976 51.3364C139.976 51.3364 130.937 60.3757 117.378 60.3757C103.819 60.3757 94.7796 51.3364 94.7796 51.3364V6.13965H135.457Z" stroke="black" stroke-width="12"/>
<path d="M94.7794 6.13965V51.3364C94.7794 51.3364 85.74 60.3757 72.1809 60.3757C58.6219 60.3757 49.5826 51.3364 49.5826 51.3364L54.1022 6.13965H94.7794Z" stroke="black" stroke-width="12"/>
<path d="M54.1025 6.13965H18.0199C15.3686 6.13965 13.106 8.05644 12.6701 10.6716L6.30146 48.8833C6.04194 50.4407 6.47429 52.0398 7.65573 53.0873C10.6199 55.7155 17.2486 60.3757 26.9843 60.3757C40.5433 60.3757 49.5828 51.3364 49.5828 51.3364L54.1025 6.13965Z" stroke="black" stroke-width="12"/>
<path d="M13.4858 60.376V150.769C13.4858 160.754 21.5799 168.848 31.5645 168.848H158.115C168.1 168.848 176.194 160.754 176.194 150.769V60.376" stroke="black" stroke-width="12"/>
<path d="M120.451 168.847V114.611C120.451 104.626 112.357 96.5322 102.372 96.5322H84.2938C74.3093 96.5322 66.2152 104.626 66.2152 114.611V168.847" stroke="black" stroke-width="12" stroke-miterlimit="16"/>
</svg>
