<svg width="960" height="1187" viewBox="0 0 960 1187" fill="none" xmlns="http://www.w3.org/2000/svg">
<rect width="960" height="1187" fill="#F4F4F4"/>
<path d="M101.96 77.576C104.384 77.576 106.304 78.44 107.912 80.264L105.56 81.992C104.576 80.936 103.472 80.312 101.984 80.312C98.504 80.312 96.152 83 96.152 86.384C96.152 89.888 98.408 92.696 101.984 92.696C103.592 92.696 104.84 91.856 105.8 90.632L108.296 92.408C106.832 94.472 104.456 95.432 101.96 95.432C96.728 95.432 92.984 91.856 92.984 86.576C92.984 81.296 96.536 77.576 101.96 77.576ZM115.75 83.192C119.278 83.192 122.014 85.64 122.014 89.24C122.014 92.84 119.278 95.288 115.75 95.288C112.222 95.288 109.486 92.84 109.486 89.24C109.486 85.664 112.246 83.192 115.75 83.192ZM112.366 89.24C112.366 91.232 113.806 92.696 115.75 92.696C117.766 92.696 119.134 91.16 119.134 89.24C119.134 87.248 117.694 85.784 115.726 85.784C113.806 85.784 112.366 87.272 112.366 89.24ZM127.638 76.856V95H124.758V76.856H127.638ZM136.633 83.192C140.161 83.192 142.897 85.64 142.897 89.24C142.897 92.84 140.161 95.288 136.633 95.288C133.105 95.288 130.369 92.84 130.369 89.24C130.369 85.664 133.129 83.192 136.633 83.192ZM133.249 89.24C133.249 91.232 134.689 92.696 136.633 92.696C138.649 92.696 140.017 91.16 140.017 89.24C140.017 87.248 138.577 85.784 136.609 85.784C134.689 85.784 133.249 87.272 133.249 89.24ZM145.593 95V83.48H148.473V85.304H148.521C149.145 83.984 150.417 83.192 151.929 83.192C152.361 83.192 152.577 83.264 152.961 83.36V86.144C152.409 86 152.001 85.928 151.569 85.928C149.385 85.928 148.473 87.464 148.473 89V95H145.593ZM158.857 83.192C160.657 83.192 162.145 83.816 162.985 84.944L161.065 86.672C160.489 85.88 159.769 85.496 158.809 85.496C157.873 85.496 157.129 85.976 157.129 86.72C157.129 87.656 158.425 87.824 159.865 88.16C161.641 88.568 163.345 89.216 163.345 91.592C163.345 94.016 161.209 95.288 158.353 95.288C156.577 95.288 155.065 94.832 153.889 93.512L155.809 91.712C156.793 92.792 157.561 93.128 158.545 93.128C159.601 93.128 160.465 92.6 160.465 91.808C160.465 90.704 159.073 90.512 157.609 90.176C156.049 89.816 154.249 89.264 154.249 86.912C154.249 84.104 156.889 83.192 158.857 83.192Z" fill="#1E4621"/>
<rect x="92.5" y="155.5" width="249" height="124" rx="9.5" fill="#1E4621"/>
<rect x="92.5" y="155.5" width="249" height="124" rx="9.5" stroke="#1E4621"/>
<path d="M114.4 251.92H112.5V250.36H114.62L115.02 247.48H113.12V245.92H115.24L115.8 241.84H117.38L116.82 245.92H119.14L119.7 241.84H121.28L120.72 245.92H122.62V247.48H120.5L120.1 250.36H122V251.92H119.88L119.32 256H117.74L118.3 251.92H115.98L115.42 256H113.84L114.4 251.92ZM116.6 247.48L116.2 250.36H118.52L118.92 247.48H116.6ZM130.433 241.84V256H128.513V244.04L125.913 246.44L124.793 245.1L128.733 241.84H130.433ZM136.047 256V241.84H145.187V243.64H137.967V247.86H144.687V249.66H137.967V254.2H145.547V256H136.047ZM147.133 252.88V250.92L152.773 241.84H155.093V251.2H157.093V252.88H155.093V256H153.173V252.88H147.133ZM153.133 244.12L148.813 251.2H153.173V244.12H153.133ZM165.526 241.84L161.966 247.32H162.046C162.506 247.1 163.026 247 163.606 247C165.546 247 167.986 248.3 167.986 251.48C167.986 254.4 166.006 256.24 163.126 256.24C160.386 256.24 158.266 254.36 158.266 251.68C158.266 250.02 158.726 249.04 159.666 247.52L163.266 241.84H165.526ZM160.186 251.62C160.186 253.36 161.386 254.56 163.126 254.56C164.846 254.56 166.066 253.38 166.066 251.62C166.066 250.14 165.126 248.68 163.106 248.68C161.446 248.68 160.186 249.82 160.186 251.62ZM174.42 241.48C177.08 241.48 178.88 243 178.88 245.4C178.88 246.82 178.32 248 176.46 249.78L171.76 254.32H178.88V256H169.6V253.96L175.12 248.48C176.08 247.54 176.84 246.6 176.84 245.42C176.84 244.1 175.8 243.16 174.4 243.16C173 243.16 172.06 243.98 171.82 245.34L169.74 245.16C170.1 242.8 171.86 241.48 174.42 241.48ZM187.113 241.84V256H185.193V244.04L182.593 246.44L181.473 245.1L185.413 241.84H187.113Z" fill="white"/>
<rect x="374.5" y="155.5" width="249" height="124" rx="9.5" fill="white"/>
<rect x="374.5" y="155.5" width="249" height="124" rx="9.5" stroke="#1E4621"/>
<path d="M396.4 251.92H394.5V250.36H396.62L397.02 247.48H395.12V245.92H397.24L397.8 241.84H399.38L398.82 245.92H401.14L401.7 241.84H403.28L402.72 245.92H404.62V247.48H402.5L402.1 250.36H404V251.92H401.88L401.32 256H399.74L400.3 251.92H397.98L397.42 256H395.84L396.4 251.92ZM398.6 247.48L398.2 250.36H400.52L400.92 247.48H398.6ZM406.933 256V241.84H415.833V243.64H408.853V248.08H415.353V249.88H408.853V256H406.933ZM418.418 256V241.84H427.318V243.64H420.338V248.08H426.838V249.88H420.338V256H418.418ZM429.902 256V241.84H438.802V243.64H431.822V248.08H438.322V249.88H431.822V256H429.902ZM441.386 256V241.84H450.286V243.64H443.306V248.08H449.806V249.88H443.306V256H441.386ZM452.871 256V241.84H461.771V243.64H454.791V248.08H461.291V249.88H454.791V256H452.871ZM464.355 256V241.84H473.255V243.64H466.275V248.08H472.775V249.88H466.275V256H464.355Z" fill="#1E4621"/>
<rect x="656.5" y="155.5" width="249" height="124" rx="9.5" fill="#A64E8E"/>
<rect x="656.5" y="155.5" width="249" height="124" rx="9.5" stroke="#1E4621"/>
<path d="M678.4 251.92H676.5V250.36H678.62L679.02 247.48H677.12V245.92H679.24L679.8 241.84H681.38L680.82 245.92H683.14L683.7 241.84H685.28L684.72 245.92H686.62V247.48H684.5L684.1 250.36H686V251.92H683.88L683.32 256H681.74L682.3 251.92H679.98L679.42 256H677.84L678.4 251.92ZM680.6 247.48L680.2 250.36H682.52L682.92 247.48H680.6ZM689.373 256H687.133L693.373 241.84H695.113L701.173 256H698.933L697.513 252.5H690.773L689.373 256ZM694.133 244.32L691.453 250.82H696.813L694.173 244.32H694.133ZM709.155 241.84L705.595 247.32H705.675C706.135 247.1 706.655 247 707.235 247C709.175 247 711.615 248.3 711.615 251.48C711.615 254.4 709.635 256.24 706.755 256.24C704.015 256.24 701.895 254.36 701.895 251.68C701.895 250.02 702.355 249.04 703.295 247.52L706.895 241.84H709.155ZM703.815 251.62C703.815 253.36 705.015 254.56 706.755 254.56C708.475 254.56 709.695 253.38 709.695 251.62C709.695 250.14 708.755 248.68 706.735 248.68C705.075 248.68 703.815 249.82 703.815 251.62ZM712.989 252.88V250.92L718.629 241.84H720.949V251.2H722.949V252.88H720.949V256H719.029V252.88H712.989ZM718.989 244.12L714.669 251.2H719.029V244.12H718.989ZM725.242 256V241.84H734.382V243.64H727.162V247.86H733.882V249.66H727.162V254.2H734.742V256H725.242ZM741.208 241.6C743.488 241.6 745.348 243 745.348 245.14C745.348 246.76 744.508 248 743.128 248.42V248.48C744.788 248.96 745.828 250.26 745.828 251.94C745.828 254.52 743.908 256.24 741.208 256.24C738.508 256.24 736.588 254.52 736.588 251.94C736.588 250.3 737.588 248.96 739.288 248.48V248.42C737.908 248.02 737.068 246.76 737.068 245.14C737.068 243.06 738.908 241.6 741.208 241.6ZM738.988 245.4C738.988 246.64 739.928 247.64 741.208 247.64C742.568 247.64 743.428 246.68 743.428 245.4C743.428 244.06 742.508 243.16 741.188 243.16C739.988 243.16 738.988 244.08 738.988 245.4ZM738.508 251.94C738.508 253.52 739.688 254.56 741.208 254.56C742.748 254.56 743.908 253.52 743.908 251.94C743.908 250.28 742.748 249.32 741.188 249.32C739.788 249.32 738.508 250.34 738.508 251.94ZM748.582 256V241.84H757.722V243.64H750.502V247.86H757.222V249.66H750.502V254.2H758.082V256H748.582Z" fill="white"/>
<path d="M94.805 304H93.365V293.38H97.175C99.215 293.38 100.505 294.445 100.505 296.35C100.505 298.27 99.185 299.32 97.175 299.32H94.805V304ZM94.805 294.64V298.06H96.755C98.24 298.06 98.975 297.52 98.975 296.35C98.975 295.195 98.225 294.64 96.755 294.64H94.805ZM101.912 304V296.89H103.262V297.985H103.292C103.652 297.22 104.537 296.71 105.422 296.71C105.647 296.71 105.872 296.74 106.022 296.8L105.962 298.255C105.737 298.195 105.527 298.15 105.287 298.15C103.952 298.15 103.262 298.93 103.262 300.37V304H101.912ZM108.243 293.35C108.783 293.35 109.233 293.8 109.233 294.34C109.233 294.895 108.768 295.33 108.243 295.33C107.688 295.33 107.253 294.895 107.253 294.34C107.253 293.785 107.718 293.35 108.243 293.35ZM108.918 296.89V304H107.568V296.89H108.918ZM112.417 304H111.067V296.89H112.327V298H112.357C112.642 297.34 113.587 296.71 114.637 296.71C115.687 296.71 116.392 297.145 116.857 298.03C117.307 297.205 118.177 296.71 119.107 296.71C120.907 296.71 121.807 297.775 121.807 299.8V304H120.457V299.965C120.457 298.57 119.962 297.97 118.927 297.97C117.712 297.97 117.112 298.765 117.112 300.055V304H115.762V300.175C115.762 298.495 115.267 297.97 114.262 297.97C113.152 297.97 112.417 298.9 112.417 300.25V304ZM125.955 304.18C124.53 304.18 123.495 303.37 123.495 302.05C123.495 300.625 124.605 299.59 127.395 299.59H128.4V299.335C128.4 298.375 127.695 297.79 126.69 297.79C125.925 297.79 125.46 297.97 124.68 298.6L123.87 297.76C124.62 297.07 125.67 296.71 126.69 296.71C128.835 296.71 129.66 297.925 129.66 299.035V302.845C129.66 303.055 129.675 303.625 129.72 304H128.52C128.49 303.64 128.475 303.34 128.475 302.92H128.445C127.83 303.835 127.035 304.18 125.955 304.18ZM127.635 300.58C125.445 300.58 124.845 301.255 124.845 301.945C124.845 302.68 125.34 303.1 126.375 303.1C127.59 303.1 128.4 302.35 128.4 300.97V300.58H127.635ZM131.619 304V296.89H132.969V297.985H132.999C133.359 297.22 134.244 296.71 135.129 296.71C135.354 296.71 135.579 296.74 135.729 296.8L135.669 298.255C135.444 298.195 135.234 298.15 134.994 298.15C133.659 298.15 132.969 298.93 132.969 300.37V304H131.619ZM136.315 296.89H137.875L139.99 302.44H140.02L142.03 296.89H143.485L140.125 305.5C139.63 306.79 139.15 307.6 137.68 307.6C137.26 307.6 136.855 307.555 136.48 307.405L136.645 306.19C136.915 306.28 137.185 306.34 137.455 306.34C138.295 306.34 138.565 305.905 138.85 305.155L139.27 304.045L136.315 296.89Z" fill="#1E4621"/>
<path d="M378.41 293.11C379.925 293.11 380.855 293.56 381.47 294.325L380.3 295.39C379.94 294.835 379.25 294.46 378.395 294.46C376.76 294.46 376.34 295.48 376.34 296.095C376.34 296.995 376.955 297.475 377.93 297.775L379.265 298.21C380.75 298.69 381.575 299.485 381.575 300.985C381.575 302.95 380.03 304.27 377.885 304.27C376.385 304.27 375.185 303.73 374.495 302.8L375.68 301.78C376.145 302.5 377 302.92 377.93 302.92C378.995 302.92 380.045 302.245 380.045 301.15C380.045 300.415 379.61 299.95 378.32 299.545L377.375 299.23C375.92 298.765 374.81 298 374.81 296.095C374.81 294.685 376.01 293.11 378.41 293.11ZM386.61 296.71C388.71 296.71 390.075 298.105 390.075 300.565V300.94H384.375C384.375 302.17 385.53 303.01 386.775 303.01C387.6 303.01 388.2 302.59 388.725 301.945L389.745 302.725C388.98 303.7 387.96 304.18 386.595 304.18C384.48 304.18 382.935 302.71 382.935 300.445C382.935 298.345 384.45 296.71 386.61 296.71ZM388.635 299.86C388.59 298.525 387.84 297.79 386.58 297.79C385.155 297.79 384.375 299.005 384.375 299.86H388.635ZM395.065 296.725C396.1 296.725 397.09 297.085 397.795 297.85L396.775 298.78C396.28 298.255 395.755 297.985 395.005 297.985C393.655 297.985 392.785 299.035 392.785 300.505C392.785 301.885 393.73 302.92 395.08 302.92C395.845 302.92 396.34 302.65 396.805 302.125L397.765 303.085C397.06 303.88 396.1 304.18 395.065 304.18C392.875 304.18 391.345 302.665 391.345 300.475C391.345 298.255 392.89 296.725 395.065 296.725ZM402.361 296.71C404.371 296.71 406.141 298.27 406.141 300.445C406.141 302.515 404.476 304.18 402.361 304.18C400.306 304.18 398.581 302.56 398.581 300.445C398.581 298.375 400.246 296.71 402.361 296.71ZM400.021 300.445C400.021 301.93 400.966 302.92 402.361 302.92C403.771 302.92 404.701 301.915 404.701 300.445C404.701 298.945 403.741 297.97 402.346 297.97C400.966 297.97 400.021 298.99 400.021 300.445ZM407.833 296.89H409.183V297.985H409.213C409.588 297.19 410.518 296.71 411.553 296.71C413.143 296.71 414.133 297.76 414.133 299.365V304H412.783V299.755C412.783 298.66 412.183 297.97 411.163 297.97C409.918 297.97 409.183 298.855 409.183 300.28V304H407.833V296.89ZM419.437 304.18C417.337 304.18 415.822 302.65 415.822 300.445C415.822 298.24 417.337 296.71 419.437 296.71C420.412 296.71 421.402 297.145 421.912 297.91H421.942V292.66H423.292V304H421.942V302.98H421.912C421.387 303.745 420.427 304.18 419.437 304.18ZM417.262 300.445C417.262 301.93 418.207 302.92 419.602 302.92C421.012 302.92 421.942 301.915 421.942 300.445C421.942 298.945 420.982 297.97 419.587 297.97C418.207 297.97 417.262 298.96 417.262 300.445ZM427.452 304.18C426.027 304.18 424.992 303.37 424.992 302.05C424.992 300.625 426.102 299.59 428.892 299.59H429.897V299.335C429.897 298.375 429.192 297.79 428.187 297.79C427.422 297.79 426.957 297.97 426.177 298.6L425.367 297.76C426.117 297.07 427.167 296.71 428.187 296.71C430.332 296.71 431.157 297.925 431.157 299.035V302.845C431.157 303.055 431.172 303.625 431.217 304H430.017C429.987 303.64 429.972 303.34 429.972 302.92H429.942C429.327 303.835 428.532 304.18 427.452 304.18ZM429.132 300.58C426.942 300.58 426.342 301.255 426.342 301.945C426.342 302.68 426.837 303.1 427.872 303.1C429.087 303.1 429.897 302.35 429.897 300.97V300.58H429.132ZM433.116 304V296.89H434.466V297.985H434.496C434.856 297.22 435.741 296.71 436.626 296.71C436.851 296.71 437.076 296.74 437.226 296.8L437.166 298.255C436.941 298.195 436.731 298.15 436.491 298.15C435.156 298.15 434.466 298.93 434.466 300.37V304H433.116ZM437.812 296.89H439.372L441.487 302.44H441.517L443.527 296.89H444.982L441.622 305.5C441.127 306.79 440.647 307.6 439.177 307.6C438.757 307.6 438.352 307.555 437.977 307.405L438.142 306.19C438.412 306.28 438.682 306.34 438.952 306.34C439.792 306.34 440.062 305.905 440.347 305.155L440.767 304.045L437.812 296.89Z" fill="#1E4621"/>
<path d="M657.365 304V293.38H664.22V294.73H658.805V297.895H663.845V299.245H658.805V302.65H664.49V304H657.365ZM666.19 304V296.89H667.54V297.985H667.57C667.93 297.22 668.815 296.71 669.7 296.71C669.925 296.71 670.15 296.74 670.3 296.8L670.24 298.255C670.015 298.195 669.805 298.15 669.565 298.15C668.23 298.15 667.54 298.93 667.54 300.37V304H666.19ZM671.742 304V296.89H673.092V297.985H673.122C673.482 297.22 674.367 296.71 675.252 296.71C675.477 296.71 675.702 296.74 675.852 296.8L675.792 298.255C675.567 298.195 675.357 298.15 675.117 298.15C673.782 298.15 673.092 298.93 673.092 300.37V304H671.742ZM680.465 296.71C682.475 296.71 684.245 298.27 684.245 300.445C684.245 302.515 682.58 304.18 680.465 304.18C678.41 304.18 676.685 302.56 676.685 300.445C676.685 298.375 678.35 296.71 680.465 296.71ZM678.125 300.445C678.125 301.93 679.07 302.92 680.465 302.92C681.875 302.92 682.805 301.915 682.805 300.445C682.805 298.945 681.845 297.97 680.45 297.97C679.07 297.97 678.125 298.99 678.125 300.445ZM685.936 304V296.89H687.286V297.985H687.316C687.676 297.22 688.561 296.71 689.446 296.71C689.671 296.71 689.896 296.74 690.046 296.8L689.986 298.255C689.761 298.195 689.551 298.15 689.311 298.15C687.976 298.15 687.286 298.93 687.286 300.37V304H685.936Z" fill="#1E4621"/>
<rect x="92.5" y="795.5" width="249" height="124" rx="9.5" fill="#F9F8BE"/>
<rect x="92.5" y="795.5" width="249" height="124" rx="9.5" stroke="#1E4621"/>
<path d="M114.4 891.92H112.5V890.36H114.62L115.02 887.48H113.12V885.92H115.24L115.8 881.84H117.38L116.82 885.92H119.14L119.7 881.84H121.28L120.72 885.92H122.62V887.48H120.5L120.1 890.36H122V891.92H119.88L119.32 896H117.74L118.3 891.92H115.98L115.42 896H113.84L114.4 891.92ZM116.6 887.48L116.2 890.36H118.52L118.92 887.48H116.6ZM130.433 881.84V896H128.513V884.04L125.913 886.44L124.793 885.1L128.733 881.84H130.433ZM136.047 896V881.84H145.187V883.64H137.967V887.86H144.687V889.66H137.967V894.2H145.547V896H136.047ZM147.133 892.88V890.92L152.773 881.84H155.093V891.2H157.093V892.88H155.093V896H153.173V892.88H147.133ZM153.133 884.12L148.813 891.2H153.173V884.12H153.133ZM165.526 881.84L161.966 887.32H162.046C162.506 887.1 163.026 887 163.606 887C165.546 887 167.986 888.3 167.986 891.48C167.986 894.4 166.006 896.24 163.126 896.24C160.386 896.24 158.266 894.36 158.266 891.68C158.266 890.02 158.726 889.04 159.666 887.52L163.266 881.84H165.526ZM160.186 891.62C160.186 893.36 161.386 894.56 163.126 894.56C164.846 894.56 166.066 893.38 166.066 891.62C166.066 890.14 165.126 888.68 163.106 888.68C161.446 888.68 160.186 889.82 160.186 891.62ZM174.42 881.48C177.08 881.48 178.88 883 178.88 885.4C178.88 886.82 178.32 888 176.46 889.78L171.76 894.32H178.88V896H169.6V893.96L175.12 888.48C176.08 887.54 176.84 886.6 176.84 885.42C176.84 884.1 175.8 883.16 174.4 883.16C173 883.16 172.06 883.98 171.82 885.34L169.74 885.16C170.1 882.8 171.86 881.48 174.42 881.48ZM187.113 881.84V896H185.193V884.04L182.593 886.44L181.473 885.1L185.413 881.84H187.113Z" fill="#1E4621"/>
<rect x="374.5" y="795.5" width="249" height="124" rx="9.5" fill="#FFCC33"/>
<rect x="374.5" y="795.5" width="249" height="124" rx="9.5" stroke="#1E4621"/>
<path d="M396.4 891.92H394.5V890.36H396.62L397.02 887.48H395.12V885.92H397.24L397.8 881.84H399.38L398.82 885.92H401.14L401.7 881.84H403.28L402.72 885.92H404.62V887.48H402.5L402.1 890.36H404V891.92H401.88L401.32 896H399.74L400.3 891.92H397.98L397.42 896H395.84L396.4 891.92ZM398.6 887.48L398.2 890.36H400.52L400.92 887.48H398.6ZM406.933 896V881.84H415.833V883.64H408.853V888.08H415.353V889.88H408.853V896H406.933ZM418.418 896V881.84H427.318V883.64H420.338V888.08H426.838V889.88H420.338V896H418.418ZM436.402 881.48C438.402 881.48 440.262 882.26 441.362 883.68L439.762 884.9C438.922 883.84 437.662 883.28 436.342 883.28C433.182 883.28 431.062 885.82 431.062 889.04C431.062 892.08 433.122 894.56 436.342 894.56C437.982 894.56 439.182 893.86 440.042 892.66L441.662 893.88C440.562 895.36 438.582 896.36 436.302 896.36C431.742 896.36 429.022 892.52 429.022 889.02C429.022 884.74 431.942 881.48 436.402 881.48ZM450.484 881.48C452.484 881.48 454.344 882.26 455.444 883.68L453.844 884.9C453.004 883.84 451.744 883.28 450.424 883.28C447.264 883.28 445.144 885.82 445.144 889.04C445.144 892.08 447.204 894.56 450.424 894.56C452.064 894.56 453.264 893.86 454.124 892.66L455.744 893.88C454.644 895.36 452.664 896.36 450.384 896.36C445.824 896.36 443.104 892.52 443.104 889.02C443.104 884.74 446.024 881.48 450.484 881.48ZM461.746 881.48C464.066 881.48 466.086 882.7 466.086 885.32C466.086 886.82 465.086 888.1 463.666 888.54V888.58C465.406 888.9 466.446 890.34 466.446 892.14C466.446 894.86 464.226 896.24 461.726 896.24C459.386 896.24 457.786 895.16 457.166 893.16L459.186 892.54C459.706 894.06 460.446 894.56 461.766 894.56C463.326 894.56 464.526 893.48 464.526 892C464.526 890.26 463.426 889.36 460.546 889.36V887.68C462.926 887.68 464.166 887.2 464.166 885.46C464.166 884 463.206 883.16 461.786 883.16C460.746 883.16 459.866 883.82 459.426 884.8L457.466 884.14C458.166 882.46 459.726 881.48 461.746 881.48ZM472.859 881.48C475.179 881.48 477.199 882.7 477.199 885.32C477.199 886.82 476.199 888.1 474.779 888.54V888.58C476.519 888.9 477.559 890.34 477.559 892.14C477.559 894.86 475.339 896.24 472.839 896.24C470.499 896.24 468.899 895.16 468.279 893.16L470.299 892.54C470.819 894.06 471.559 894.56 472.879 894.56C474.439 894.56 475.639 893.48 475.639 892C475.639 890.26 474.539 889.36 471.659 889.36V887.68C474.039 887.68 475.279 887.2 475.279 885.46C475.279 884 474.319 883.16 472.899 883.16C471.859 883.16 470.979 883.82 470.539 884.8L468.579 884.14C469.279 882.46 470.839 881.48 472.859 881.48Z" fill="#1E4621"/>
<rect x="656.5" y="795.5" width="249" height="124" rx="9.5" fill="#DEAD1A"/>
<rect x="656.5" y="795.5" width="249" height="124" rx="9.5" stroke="#1E4621"/>
<path d="M678.4 891.92H676.5V890.36H678.62L679.02 887.48H677.12V885.92H679.24L679.8 881.84H681.38L680.82 885.92H683.14L683.7 881.84H685.28L684.72 885.92H686.62V887.48H684.5L684.1 890.36H686V891.92H683.88L683.32 896H681.74L682.3 891.92H679.98L679.42 896H677.84L678.4 891.92ZM680.6 887.48L680.2 890.36H682.52L682.92 887.48H680.6ZM693.653 881.84C698.753 881.84 700.993 885.44 700.993 888.92C700.993 892.98 697.813 896 693.353 896H688.613V881.84H693.653ZM693.053 894.2C695.733 894.2 698.953 892.74 698.953 888.92C698.953 886.22 697.253 883.64 693.513 883.64H690.533V894.2H693.053ZM703.758 896V881.84H712.898V883.64H705.678V887.86H712.398V889.66H705.678V894.2H713.258V896H703.758ZM716.424 896H714.184L720.424 881.84H722.164L728.224 896H725.984L724.564 892.5H717.824L716.424 896ZM721.184 884.32L718.504 890.82H723.864L721.224 884.32H721.184ZM734.786 881.84C739.886 881.84 742.126 885.44 742.126 888.92C742.126 892.98 738.946 896 734.486 896H729.746V881.84H734.786ZM734.186 894.2C736.866 894.2 740.086 892.74 740.086 888.92C740.086 886.22 738.386 883.64 734.646 883.64H731.666V894.2H734.186ZM750.39 881.84V896H748.47V884.04L745.87 886.44L744.75 885.1L748.69 881.84H750.39ZM756.444 896H754.204L760.444 881.84H762.184L768.244 896H766.004L764.584 892.5H757.844L756.444 896ZM761.204 884.32L758.524 890.82H763.884L761.244 884.32H761.204Z" fill="#1E4621"/>
<path d="M98.24 933.11C99.74 933.11 101.135 933.695 101.96 934.76L100.76 935.675C100.13 934.88 99.185 934.46 98.195 934.46C95.825 934.46 94.235 936.365 94.235 938.78C94.235 941.06 95.78 942.92 98.195 942.92C99.425 942.92 100.325 942.395 100.97 941.495L102.185 942.41C101.36 943.52 99.875 944.27 98.165 944.27C94.745 944.27 92.705 941.39 92.705 938.765C92.705 935.555 94.895 933.11 98.24 933.11ZM103.582 936.89H104.932V941.15C104.932 942.26 105.547 942.92 106.552 942.92C107.812 942.92 108.532 942.02 108.532 940.61V936.89H109.882V944H108.532V942.905H108.502C108.127 943.7 107.212 944.18 106.162 944.18C104.587 944.18 103.582 943.13 103.582 941.525V936.89ZM113.266 944H111.916V936.89H113.176V938H113.206C113.491 937.34 114.436 936.71 115.486 936.71C116.536 936.71 117.241 937.145 117.706 938.03C118.156 937.205 119.026 936.71 119.956 936.71C121.756 936.71 122.656 937.775 122.656 939.8V944H121.306V939.965C121.306 938.57 120.811 937.97 119.776 937.97C118.561 937.97 117.961 938.765 117.961 940.055V944H116.611V940.175C116.611 938.495 116.116 937.97 115.111 937.97C114.001 937.97 113.266 938.9 113.266 940.25V944ZM124.69 936.89H126.04V941.15C126.04 942.26 126.655 942.92 127.66 942.92C128.92 942.92 129.64 942.02 129.64 940.61V936.89H130.99V944H129.64V942.905H129.61C129.235 943.7 128.32 944.18 127.27 944.18C125.695 944.18 124.69 943.13 124.69 941.525V936.89ZM134.48 932.66V944H133.13V932.66H134.48ZM136.628 936.89H137.978V941.15C137.978 942.26 138.593 942.92 139.598 942.92C140.858 942.92 141.578 942.02 141.578 940.61V936.89H142.928V944H141.578V942.905H141.548C141.173 943.7 140.258 944.18 139.208 944.18C137.633 944.18 136.628 943.13 136.628 941.525V936.89ZM147.363 936.71C148.443 936.71 149.343 937.13 149.793 937.88L148.743 938.675C148.413 938.285 147.963 937.97 147.288 937.97C146.613 937.97 146.103 938.3 146.103 938.765C146.103 939.35 146.673 939.62 147.498 939.785C149.193 940.115 149.988 940.655 149.988 941.945C149.988 943.505 148.578 944.18 147.093 944.18C145.788 944.18 144.978 943.775 144.363 942.92L145.383 942.08C145.998 942.71 146.523 942.92 147.108 942.92C147.858 942.92 148.548 942.605 148.548 942.02C148.548 941.48 148.053 941.195 147.198 941C145.533 940.655 144.663 940.19 144.663 938.9C144.663 937.43 146.013 936.71 147.363 936.71Z" fill="#1E4621"/>
<path d="M378.41 933.11C379.925 933.11 380.855 933.56 381.47 934.325L380.3 935.39C379.94 934.835 379.25 934.46 378.395 934.46C376.76 934.46 376.34 935.48 376.34 936.095C376.34 936.995 376.955 937.475 377.93 937.775L379.265 938.21C380.75 938.69 381.575 939.485 381.575 940.985C381.575 942.95 380.03 944.27 377.885 944.27C376.385 944.27 375.185 943.73 374.495 942.8L375.68 941.78C376.145 942.5 377 942.92 377.93 942.92C378.995 942.92 380.045 942.245 380.045 941.15C380.045 940.415 379.61 939.95 378.32 939.545L377.375 939.23C375.92 938.765 374.81 938 374.81 936.095C374.81 934.685 376.01 933.11 378.41 933.11ZM383.355 936.89H384.705V941.15C384.705 942.26 385.32 942.92 386.325 942.92C387.585 942.92 388.305 942.02 388.305 940.61V936.89H389.655V944H388.305V942.905H388.275C387.9 943.7 386.985 944.18 385.935 944.18C384.36 944.18 383.355 943.13 383.355 941.525V936.89ZM391.69 936.89H393.04V937.985H393.07C393.445 937.19 394.375 936.71 395.41 936.71C397 936.71 397.99 937.76 397.99 939.365V944H396.64V939.755C396.64 938.66 396.04 937.97 395.02 937.97C393.775 937.97 393.04 938.855 393.04 940.28V944H391.69V936.89ZM399.68 940.475C399.68 938.195 401.21 936.71 403.295 936.71C404.3 936.71 405.245 937.16 405.77 937.91H405.8V936.89H407.15V944C407.15 945.905 405.755 947.6 403.265 947.6C401.915 947.6 400.775 947.255 399.785 946.325L400.7 945.185C401.405 945.935 402.185 946.34 403.25 946.34C404.93 946.34 405.8 945.41 405.8 943.91V942.83H405.755C405.275 943.655 404.315 944.09 403.295 944.09C401.3 944.09 399.68 942.62 399.68 940.475ZM403.445 937.97C402.065 937.97 401.12 938.99 401.12 940.445C401.12 941.855 402.005 942.83 403.46 942.83C404.885 942.83 405.8 941.9 405.8 940.445C405.8 938.945 404.84 937.97 403.445 937.97ZM410.65 932.66V944H409.3V932.66H410.65ZM416.233 936.71C418.243 936.71 420.013 938.27 420.013 940.445C420.013 942.515 418.348 944.18 416.233 944.18C414.178 944.18 412.453 942.56 412.453 940.445C412.453 938.375 414.118 936.71 416.233 936.71ZM413.893 940.445C413.893 941.93 414.838 942.92 416.233 942.92C417.643 942.92 418.573 941.915 418.573 940.445C418.573 938.945 417.613 937.97 416.218 937.97C414.838 937.97 413.893 938.99 413.893 940.445ZM423.19 944L420.85 936.89H422.365L423.97 942.2H424L425.695 936.89H427.12L428.92 942.2H428.95L430.48 936.89H431.905L429.61 944H428.245L426.37 938.69H426.34L424.645 944H423.19Z" fill="#1E4621"/>
<path d="M662.255 933.11C664.01 933.11 665.3 933.545 666.2 934.49L665.18 935.585C664.31 934.745 663.29 934.46 662.24 934.46C659.9 934.46 658.235 936.26 658.235 938.69C658.235 941.015 659.93 942.92 662.36 942.92C663.365 942.92 664.31 942.74 664.97 942.365V939.41H662.615V938.06H666.41V943.295C665.405 943.91 663.755 944.27 662.39 944.27C658.97 944.27 656.705 941.885 656.705 938.69C656.705 935.555 659 933.11 662.255 933.11ZM670.81 944.18C669.385 944.18 668.35 943.37 668.35 942.05C668.35 940.625 669.46 939.59 672.25 939.59H673.255V939.335C673.255 938.375 672.55 937.79 671.545 937.79C670.78 937.79 670.315 937.97 669.535 938.6L668.725 937.76C669.475 937.07 670.525 936.71 671.545 936.71C673.69 936.71 674.515 937.925 674.515 939.035V942.845C674.515 943.055 674.53 943.625 674.575 944H673.375C673.345 943.64 673.33 943.34 673.33 942.92H673.3C672.685 943.835 671.89 944.18 670.81 944.18ZM672.49 940.58C670.3 940.58 669.7 941.255 669.7 941.945C669.7 942.68 670.195 943.1 671.23 943.1C672.445 943.1 673.255 942.35 673.255 940.97V940.58H672.49ZM677.928 932.66V944H676.578V932.66H677.928ZM681.532 932.66V944H680.182V932.66H681.532ZM684.46 933.35C685 933.35 685.45 933.8 685.45 934.34C685.45 934.895 684.985 935.33 684.46 935.33C683.905 935.33 683.47 934.895 683.47 934.34C683.47 933.785 683.935 933.35 684.46 933.35ZM685.135 936.89V944H683.785V936.89H685.135ZM689.399 944.18C687.974 944.18 686.939 943.37 686.939 942.05C686.939 940.625 688.049 939.59 690.839 939.59H691.844V939.335C691.844 938.375 691.139 937.79 690.134 937.79C689.369 937.79 688.904 937.97 688.124 938.6L687.314 937.76C688.064 937.07 689.114 936.71 690.134 936.71C692.279 936.71 693.104 937.925 693.104 939.035V942.845C693.104 943.055 693.119 943.625 693.164 944H691.964C691.934 943.64 691.919 943.34 691.919 942.92H691.889C691.274 943.835 690.479 944.18 689.399 944.18ZM691.079 940.58C688.889 940.58 688.289 941.255 688.289 941.945C688.289 942.68 688.784 943.1 689.819 943.1C691.034 943.1 691.844 942.35 691.844 940.97V940.58H691.079ZM695.062 936.89H696.412V937.985H696.442C696.817 937.19 697.747 936.71 698.782 936.71C700.372 936.71 701.362 937.76 701.362 939.365V944H700.012V939.755C700.012 938.66 699.412 937.97 698.392 937.97C697.147 937.97 696.412 938.855 696.412 940.28V944H695.062V936.89ZM706.832 936.71C708.842 936.71 710.612 938.27 710.612 940.445C710.612 942.515 708.947 944.18 706.832 944.18C704.777 944.18 703.052 942.56 703.052 940.445C703.052 938.375 704.717 936.71 706.832 936.71ZM704.492 940.445C704.492 941.93 705.437 942.92 706.832 942.92C708.242 942.92 709.172 941.915 709.172 940.445C709.172 938.945 708.212 937.97 706.817 937.97C705.437 937.97 704.492 938.99 704.492 940.445Z" fill="#1E4621"/>
<rect x="92.5" y="962.5" width="249" height="124" rx="9.5" fill="#FFCAF1"/>
<rect x="92.5" y="962.5" width="249" height="124" rx="9.5" stroke="#1E4621"/>
<path d="M114.4 1058.92H112.5V1057.36H114.62L115.02 1054.48H113.12V1052.92H115.24L115.8 1048.84H117.38L116.82 1052.92H119.14L119.7 1048.84H121.28L120.72 1052.92H122.62V1054.48H120.5L120.1 1057.36H122V1058.92H119.88L119.32 1063H117.74L118.3 1058.92H115.98L115.42 1063H113.84L114.4 1058.92ZM116.6 1054.48L116.2 1057.36H118.52L118.92 1054.48H116.6ZM124.933 1063V1048.84H133.833V1050.64H126.853V1055.08H133.353V1056.88H126.853V1063H124.933ZM136.418 1063V1048.84H145.318V1050.64H138.338V1055.08H144.838V1056.88H138.338V1063H136.418ZM154.402 1048.48C156.402 1048.48 158.262 1049.26 159.362 1050.68L157.762 1051.9C156.922 1050.84 155.662 1050.28 154.342 1050.28C151.182 1050.28 149.062 1052.82 149.062 1056.04C149.062 1059.08 151.122 1061.56 154.342 1061.56C155.982 1061.56 157.182 1060.86 158.042 1059.66L159.662 1060.88C158.562 1062.36 156.582 1063.36 154.302 1063.36C149.742 1063.36 147.022 1059.52 147.022 1056.02C147.022 1051.74 149.942 1048.48 154.402 1048.48ZM162.424 1063H160.184L166.424 1048.84H168.164L174.224 1063H171.984L170.564 1059.5H163.824L162.424 1063ZM167.184 1051.32L164.504 1057.82H169.864L167.224 1051.32H167.184ZM176.066 1063V1048.84H184.966V1050.64H177.986V1055.08H184.486V1056.88H177.986V1063H176.066ZM193.05 1048.84V1063H191.13V1051.04L188.53 1053.44L187.41 1052.1L191.35 1048.84H193.05Z" fill="#1E4621"/>
<rect x="374.5" y="962.5" width="249" height="124" rx="9.5" fill="#FF8DE0"/>
<rect x="374.5" y="962.5" width="249" height="124" rx="9.5" stroke="#1E4621"/>
<path d="M396.4 1058.92H394.5V1057.36H396.62L397.02 1054.48H395.12V1052.92H397.24L397.8 1048.84H399.38L398.82 1052.92H401.14L401.7 1048.84H403.28L402.72 1052.92H404.62V1054.48H402.5L402.1 1057.36H404V1058.92H401.88L401.32 1063H399.74L400.3 1058.92H397.98L397.42 1063H395.84L396.4 1058.92ZM398.6 1054.48L398.2 1057.36H400.52L400.92 1054.48H398.6ZM406.933 1063V1048.84H415.833V1050.64H408.853V1055.08H415.353V1056.88H408.853V1063H406.933ZM418.418 1063V1048.84H427.318V1050.64H420.338V1055.08H426.838V1056.88H420.338V1063H418.418ZM433.642 1048.6C435.922 1048.6 437.782 1050 437.782 1052.14C437.782 1053.76 436.942 1055 435.562 1055.42V1055.48C437.222 1055.96 438.262 1057.26 438.262 1058.94C438.262 1061.52 436.342 1063.24 433.642 1063.24C430.942 1063.24 429.022 1061.52 429.022 1058.94C429.022 1057.3 430.022 1055.96 431.722 1055.48V1055.42C430.342 1055.02 429.502 1053.76 429.502 1052.14C429.502 1050.06 431.342 1048.6 433.642 1048.6ZM431.422 1052.4C431.422 1053.64 432.362 1054.64 433.642 1054.64C435.002 1054.64 435.862 1053.68 435.862 1052.4C435.862 1051.06 434.942 1050.16 433.622 1050.16C432.422 1050.16 431.422 1051.08 431.422 1052.4ZM430.942 1058.94C430.942 1060.52 432.122 1061.56 433.642 1061.56C435.182 1061.56 436.342 1060.52 436.342 1058.94C436.342 1057.28 435.182 1056.32 433.622 1056.32C432.222 1056.32 430.942 1057.34 430.942 1058.94ZM445.735 1048.84C450.835 1048.84 453.075 1052.44 453.075 1055.92C453.075 1059.98 449.895 1063 445.435 1063H440.695V1048.84H445.735ZM445.135 1061.2C447.815 1061.2 451.035 1059.74 451.035 1055.92C451.035 1053.22 449.335 1050.64 445.595 1050.64H442.615V1061.2H445.135ZM455.84 1063V1048.84H464.98V1050.64H457.76V1054.86H464.48V1056.66H457.76V1061.2H465.34V1063H455.84ZM471.806 1048.6C474.986 1048.6 476.686 1051.38 476.686 1055.92C476.686 1060.42 474.986 1063.24 471.806 1063.24C468.566 1063.24 466.926 1060.28 466.926 1055.92C466.926 1051.42 468.586 1048.6 471.806 1048.6ZM468.846 1055.92C468.846 1059.56 469.886 1061.56 471.806 1061.56C473.706 1061.56 474.766 1059.58 474.766 1055.92C474.766 1052.24 473.746 1050.28 471.786 1050.28C469.926 1050.28 468.846 1052.12 468.846 1055.92Z" fill="#1E4621"/>
<path d="M98.24 1100.11C99.74 1100.11 101.135 1100.69 101.96 1101.76L100.76 1102.67C100.13 1101.88 99.185 1101.46 98.195 1101.46C95.825 1101.46 94.235 1103.36 94.235 1105.78C94.235 1108.06 95.78 1109.92 98.195 1109.92C99.425 1109.92 100.325 1109.39 100.97 1108.49L102.185 1109.41C101.36 1110.52 99.875 1111.27 98.165 1111.27C94.745 1111.27 92.705 1108.39 92.705 1105.76C92.705 1102.55 94.895 1100.11 98.24 1100.11ZM105.037 1099.66V1111H103.687V1099.66H105.037ZM109.3 1111.18C107.875 1111.18 106.84 1110.37 106.84 1109.05C106.84 1107.62 107.95 1106.59 110.74 1106.59H111.745V1106.33C111.745 1105.37 111.04 1104.79 110.035 1104.79C109.27 1104.79 108.805 1104.97 108.025 1105.6L107.215 1104.76C107.965 1104.07 109.015 1103.71 110.035 1103.71C112.18 1103.71 113.005 1104.92 113.005 1106.03V1109.84C113.005 1110.05 113.02 1110.62 113.065 1111H111.865C111.835 1110.64 111.82 1110.34 111.82 1109.92H111.79C111.175 1110.83 110.38 1111.18 109.3 1111.18ZM110.98 1107.58C108.79 1107.58 108.19 1108.25 108.19 1108.94C108.19 1109.68 108.685 1110.1 109.72 1110.1C110.935 1110.1 111.745 1109.35 111.745 1107.97V1107.58H110.98ZM117.363 1103.71C118.443 1103.71 119.343 1104.13 119.793 1104.88L118.743 1105.67C118.413 1105.28 117.963 1104.97 117.288 1104.97C116.613 1104.97 116.103 1105.3 116.103 1105.76C116.103 1106.35 116.673 1106.62 117.498 1106.78C119.193 1107.11 119.988 1107.65 119.988 1108.94C119.988 1110.51 118.578 1111.18 117.093 1111.18C115.788 1111.18 114.978 1110.77 114.363 1109.92L115.383 1109.08C115.998 1109.71 116.523 1109.92 117.108 1109.92C117.858 1109.92 118.548 1109.6 118.548 1109.02C118.548 1108.48 118.053 1108.19 117.198 1108C115.533 1107.65 114.663 1107.19 114.663 1105.9C114.663 1104.43 116.013 1103.71 117.363 1103.71ZM124.028 1103.71C125.108 1103.71 126.008 1104.13 126.458 1104.88L125.408 1105.67C125.078 1105.28 124.628 1104.97 123.953 1104.97C123.278 1104.97 122.768 1105.3 122.768 1105.76C122.768 1106.35 123.338 1106.62 124.163 1106.78C125.858 1107.11 126.653 1107.65 126.653 1108.94C126.653 1110.51 125.243 1111.18 123.758 1111.18C122.453 1111.18 121.643 1110.77 121.028 1109.92L122.048 1109.08C122.663 1109.71 123.188 1109.92 123.773 1109.92C124.523 1109.92 125.213 1109.6 125.213 1109.02C125.213 1108.48 124.718 1108.19 123.863 1108C122.198 1107.65 121.328 1107.19 121.328 1105.9C121.328 1104.43 122.678 1103.71 124.028 1103.71ZM129.073 1100.35C129.613 1100.35 130.063 1100.8 130.063 1101.34C130.063 1101.89 129.598 1102.33 129.073 1102.33C128.518 1102.33 128.083 1101.89 128.083 1101.34C128.083 1100.78 128.548 1100.35 129.073 1100.35ZM129.748 1103.89V1111H128.398V1103.89H129.748ZM135.272 1103.72C136.307 1103.72 137.297 1104.08 138.002 1104.85L136.982 1105.78C136.487 1105.25 135.962 1104.98 135.212 1104.98C133.862 1104.98 132.992 1106.03 132.992 1107.5C132.992 1108.88 133.937 1109.92 135.287 1109.92C136.052 1109.92 136.547 1109.65 137.012 1109.12L137.972 1110.08C137.267 1110.88 136.307 1111.18 135.272 1111.18C133.082 1111.18 131.552 1109.66 131.552 1107.47C131.552 1105.25 133.097 1103.72 135.272 1103.72ZM145.093 1111H143.653V1100.38H147.463C149.308 1100.38 150.793 1101.28 150.793 1103.35C150.793 1104.52 149.968 1105.93 148.198 1106.15H148.183L151.198 1111H149.398L146.698 1106.32H145.093V1111ZM145.093 1101.64V1105.06H147.043C148.528 1105.06 149.263 1104.52 149.263 1103.35C149.263 1102.19 148.513 1101.64 147.043 1101.64H145.093ZM155.913 1103.71C157.923 1103.71 159.693 1105.27 159.693 1107.44C159.693 1109.51 158.028 1111.18 155.913 1111.18C153.858 1111.18 152.133 1109.56 152.133 1107.44C152.133 1105.37 153.798 1103.71 155.913 1103.71ZM153.573 1107.44C153.573 1108.93 154.518 1109.92 155.913 1109.92C157.323 1109.92 158.253 1108.91 158.253 1107.44C158.253 1105.94 157.293 1104.97 155.898 1104.97C154.518 1104.97 153.573 1105.99 153.573 1107.44ZM163.784 1103.71C164.864 1103.71 165.764 1104.13 166.214 1104.88L165.164 1105.67C164.834 1105.28 164.384 1104.97 163.709 1104.97C163.034 1104.97 162.524 1105.3 162.524 1105.76C162.524 1106.35 163.094 1106.62 163.919 1106.78C165.614 1107.11 166.409 1107.65 166.409 1108.94C166.409 1110.51 164.999 1111.18 163.514 1111.18C162.209 1111.18 161.399 1110.77 160.784 1109.92L161.804 1109.08C162.419 1109.71 162.944 1109.92 163.529 1109.92C164.279 1109.92 164.969 1109.6 164.969 1109.02C164.969 1108.48 164.474 1108.19 163.619 1108C161.954 1107.65 161.084 1107.19 161.084 1105.9C161.084 1104.43 162.434 1103.71 163.784 1103.71ZM171.304 1103.71C173.404 1103.71 174.769 1105.1 174.769 1107.56V1107.94H169.069C169.069 1109.17 170.224 1110.01 171.469 1110.01C172.294 1110.01 172.894 1109.59 173.419 1108.94L174.439 1109.72C173.674 1110.7 172.654 1111.18 171.289 1111.18C169.174 1111.18 167.629 1109.71 167.629 1107.44C167.629 1105.34 169.144 1103.71 171.304 1103.71ZM173.329 1106.86C173.284 1105.52 172.534 1104.79 171.274 1104.79C169.849 1104.79 169.069 1106 169.069 1106.86H173.329Z" fill="#1E4621"/>
<path d="M376.805 1111H375.365V1100.38H379.175C381.215 1100.38 382.505 1101.44 382.505 1103.35C382.505 1105.27 381.185 1106.32 379.175 1106.32H376.805V1111ZM376.805 1101.64V1105.06H378.755C380.24 1105.06 380.975 1104.52 380.975 1103.35C380.975 1102.19 380.225 1101.64 378.755 1101.64H376.805ZM386.027 1111.18C384.602 1111.18 383.567 1110.37 383.567 1109.05C383.567 1107.62 384.677 1106.59 387.467 1106.59H388.472V1106.33C388.472 1105.37 387.767 1104.79 386.762 1104.79C385.997 1104.79 385.532 1104.97 384.752 1105.6L383.942 1104.76C384.692 1104.07 385.742 1103.71 386.762 1103.71C388.907 1103.71 389.732 1104.92 389.732 1106.03V1109.84C389.732 1110.05 389.747 1110.62 389.792 1111H388.592C388.562 1110.64 388.547 1110.34 388.547 1109.92H388.517C387.902 1110.83 387.107 1111.18 386.027 1111.18ZM387.707 1107.58C385.517 1107.58 384.917 1108.25 384.917 1108.94C384.917 1109.68 385.412 1110.1 386.447 1110.1C387.662 1110.1 388.472 1109.35 388.472 1107.97V1107.58H387.707ZM393.145 1099.66V1111H391.795V1099.66H393.145ZM398.548 1103.71C400.648 1103.71 402.013 1105.1 402.013 1107.56V1107.94H396.313C396.313 1109.17 397.468 1110.01 398.713 1110.01C399.538 1110.01 400.138 1109.59 400.663 1108.94L401.683 1109.72C400.918 1110.7 399.898 1111.18 398.533 1111.18C396.418 1111.18 394.873 1109.71 394.873 1107.44C394.873 1105.34 396.388 1103.71 398.548 1103.71ZM400.573 1106.86C400.528 1105.52 399.778 1104.79 398.518 1104.79C397.093 1104.79 396.313 1106 396.313 1106.86H400.573ZM408.043 1111V1100.38H410.188L413.563 1108.42H413.623L416.968 1100.38H419.113V1111H417.673V1102.27H417.643L414.058 1111H413.098L409.513 1102.27H409.483V1111H408.043ZM423.512 1111.18C422.087 1111.18 421.052 1110.37 421.052 1109.05C421.052 1107.62 422.162 1106.59 424.952 1106.59H425.957V1106.33C425.957 1105.37 425.252 1104.79 424.247 1104.79C423.482 1104.79 423.017 1104.97 422.237 1105.6L421.427 1104.76C422.177 1104.07 423.227 1103.71 424.247 1103.71C426.392 1103.71 427.217 1104.92 427.217 1106.03V1109.84C427.217 1110.05 427.232 1110.62 427.277 1111H426.077C426.047 1110.64 426.032 1110.34 426.032 1109.92H426.002C425.387 1110.83 424.592 1111.18 423.512 1111.18ZM425.192 1107.58C423.002 1107.58 422.402 1108.25 422.402 1108.94C422.402 1109.68 422.897 1110.1 423.932 1110.1C425.147 1110.1 425.957 1109.35 425.957 1107.97V1107.58H425.192ZM428.83 1107.47C428.83 1105.19 430.36 1103.71 432.445 1103.71C433.45 1103.71 434.395 1104.16 434.92 1104.91H434.95V1103.89H436.3V1111C436.3 1112.91 434.905 1114.6 432.415 1114.6C431.065 1114.6 429.925 1114.26 428.935 1113.33L429.85 1112.19C430.555 1112.94 431.335 1113.34 432.4 1113.34C434.08 1113.34 434.95 1112.41 434.95 1110.91V1109.83H434.905C434.425 1110.65 433.465 1111.09 432.445 1111.09C430.45 1111.09 428.83 1109.62 428.83 1107.47ZM432.595 1104.97C431.215 1104.97 430.27 1105.99 430.27 1107.44C430.27 1108.85 431.155 1109.83 432.61 1109.83C434.035 1109.83 434.95 1108.9 434.95 1107.44C434.95 1105.94 433.99 1104.97 432.595 1104.97ZM441.6 1103.71C443.7 1103.71 445.065 1105.1 445.065 1107.56V1107.94H439.365C439.365 1109.17 440.52 1110.01 441.765 1110.01C442.59 1110.01 443.19 1109.59 443.715 1108.94L444.735 1109.72C443.97 1110.7 442.95 1111.18 441.585 1111.18C439.47 1111.18 437.925 1109.71 437.925 1107.44C437.925 1105.34 439.44 1103.71 441.6 1103.71ZM443.625 1106.86C443.58 1105.52 442.83 1104.79 441.57 1104.79C440.145 1104.79 439.365 1106 439.365 1106.86H443.625ZM446.68 1103.89H448.03V1104.98H448.06C448.435 1104.19 449.365 1103.71 450.4 1103.71C451.99 1103.71 452.98 1104.76 452.98 1106.36V1111H451.63V1106.75C451.63 1105.66 451.03 1104.97 450.01 1104.97C448.765 1104.97 448.03 1105.85 448.03 1107.28V1111H446.68V1103.89ZM455.54 1105.06H453.98V1103.89H455.54V1101.89H456.89V1103.89H458.825V1105.06H456.89V1108.48C456.89 1109.39 457.07 1109.92 457.91 1109.92C458.21 1109.92 458.6 1109.87 458.87 1109.71V1110.94C458.615 1111.09 458.03 1111.18 457.64 1111.18C455.555 1111.18 455.54 1109.83 455.54 1108.85V1105.06ZM462.682 1111.18C461.257 1111.18 460.222 1110.37 460.222 1109.05C460.222 1107.62 461.332 1106.59 464.122 1106.59H465.127V1106.33C465.127 1105.37 464.422 1104.79 463.417 1104.79C462.652 1104.79 462.187 1104.97 461.407 1105.6L460.597 1104.76C461.347 1104.07 462.397 1103.71 463.417 1103.71C465.562 1103.71 466.387 1104.92 466.387 1106.03V1109.84C466.387 1110.05 466.402 1110.62 466.447 1111H465.247C465.217 1110.64 465.202 1110.34 465.202 1109.92H465.172C464.557 1110.83 463.762 1111.18 462.682 1111.18ZM464.362 1107.58C462.172 1107.58 461.572 1108.25 461.572 1108.94C461.572 1109.68 462.067 1110.1 463.102 1110.1C464.317 1110.1 465.127 1109.35 465.127 1107.97V1107.58H464.362Z" fill="#1E4621"/>
<rect x="92.5" y="371.5" width="249" height="124" rx="9.5" fill="#0A8944"/>
<rect x="92.5" y="371.5" width="249" height="124" rx="9.5" stroke="#1E4621"/>
<path d="M114.4 467.92H112.5V466.36H114.62L115.02 463.48H113.12V461.92H115.24L115.8 457.84H117.38L116.82 461.92H119.14L119.7 457.84H121.28L120.72 461.92H122.62V463.48H120.5L120.1 466.36H122V467.92H119.88L119.32 472H117.74L118.3 467.92H115.98L115.42 472H113.84L114.4 467.92ZM116.6 463.48L116.2 466.36H118.52L118.92 463.48H116.6ZM128.673 457.6C131.853 457.6 133.553 460.38 133.553 464.92C133.553 469.42 131.853 472.24 128.673 472.24C125.433 472.24 123.793 469.28 123.793 464.92C123.793 460.42 125.453 457.6 128.673 457.6ZM125.713 464.92C125.713 468.56 126.753 470.56 128.673 470.56C130.573 470.56 131.633 468.58 131.633 464.92C131.633 461.24 130.613 459.28 128.653 459.28C126.793 459.28 125.713 461.12 125.713 464.92ZM136.487 472H134.247L140.487 457.84H142.227L148.287 472H146.047L144.627 468.5H137.887L136.487 472ZM141.247 460.32L138.567 466.82H143.927L141.287 460.32H141.247ZM153.869 457.6C156.149 457.6 158.009 459 158.009 461.14C158.009 462.76 157.169 464 155.789 464.42V464.48C157.449 464.96 158.489 466.26 158.489 467.94C158.489 470.52 156.569 472.24 153.869 472.24C151.169 472.24 149.249 470.52 149.249 467.94C149.249 466.3 150.249 464.96 151.949 464.48V464.42C150.569 464.02 149.729 462.76 149.729 461.14C149.729 459.06 151.569 457.6 153.869 457.6ZM151.649 461.4C151.649 462.64 152.589 463.64 153.869 463.64C155.229 463.64 156.089 462.68 156.089 461.4C156.089 460.06 155.169 459.16 153.849 459.16C152.649 459.16 151.649 460.08 151.649 461.4ZM151.169 467.94C151.169 469.52 152.349 470.56 153.869 470.56C155.409 470.56 156.569 469.52 156.569 467.94C156.569 466.28 155.409 465.32 153.849 465.32C152.449 465.32 151.169 466.34 151.169 467.94ZM164.982 457.6C167.782 457.6 169.842 459.52 169.842 462.16C169.842 463.82 169.322 464.9 168.442 466.3L164.842 472H162.582L166.142 466.52H166.062C165.602 466.74 165.082 466.84 164.502 466.84C162.482 466.84 160.122 465.48 160.122 462.36C160.122 459.4 162.142 457.6 164.982 457.6ZM162.042 462.22C162.042 464.02 163.282 465.16 164.982 465.16C166.742 465.16 167.922 463.96 167.922 462.22C167.922 460.76 167.002 459.28 164.962 459.28C163.302 459.28 162.042 460.4 162.042 462.22ZM171.215 468.88V466.92L176.855 457.84H179.175V467.2H181.175V468.88H179.175V472H177.255V468.88H171.215ZM177.215 460.12L172.895 467.2H177.255V460.12H177.215ZM182.328 468.88V466.92L187.968 457.84H190.288V467.2H192.288V468.88H190.288V472H188.368V468.88H182.328ZM188.328 460.12L184.008 467.2H188.368V460.12H188.328Z" fill="white"/>
<rect x="374.5" y="371.5" width="249" height="124" rx="9.5" fill="#33CC00"/>
<rect x="374.5" y="371.5" width="249" height="124" rx="9.5" stroke="#1E4621"/>
<path d="M396.4 467.92H394.5V466.36H396.62L397.02 463.48H395.12V461.92H397.24L397.8 457.84H399.38L398.82 461.92H401.14L401.7 457.84H403.28L402.72 461.92H404.62V463.48H402.5L402.1 466.36H404V467.92H401.88L401.32 472H399.74L400.3 467.92H397.98L397.42 472H395.84L396.4 467.92ZM398.6 463.48L398.2 466.36H400.52L400.92 463.48H398.6ZM410.613 457.48C412.933 457.48 414.953 458.7 414.953 461.32C414.953 462.82 413.953 464.1 412.533 464.54V464.58C414.273 464.9 415.313 466.34 415.313 468.14C415.313 470.86 413.093 472.24 410.593 472.24C408.253 472.24 406.653 471.16 406.033 469.16L408.053 468.54C408.573 470.06 409.313 470.56 410.633 470.56C412.193 470.56 413.393 469.48 413.393 468C413.393 466.26 412.293 465.36 409.413 465.36V463.68C411.793 463.68 413.033 463.2 413.033 461.46C413.033 460 412.073 459.16 410.653 459.16C409.613 459.16 408.733 459.82 408.293 460.8L406.333 460.14C407.033 458.46 408.593 457.48 410.613 457.48ZM421.727 457.48C424.047 457.48 426.067 458.7 426.067 461.32C426.067 462.82 425.067 464.1 423.647 464.54V464.58C425.387 464.9 426.427 466.34 426.427 468.14C426.427 470.86 424.207 472.24 421.707 472.24C419.367 472.24 417.767 471.16 417.147 469.16L419.167 468.54C419.687 470.06 420.427 470.56 421.747 470.56C423.307 470.56 424.507 469.48 424.507 468C424.507 466.26 423.407 465.36 420.527 465.36V463.68C422.907 463.68 424.147 463.2 424.147 461.46C424.147 460 423.187 459.16 421.767 459.16C420.727 459.16 419.847 459.82 419.407 460.8L417.447 460.14C418.147 458.46 419.707 457.48 421.727 457.48ZM435.66 457.48C437.66 457.48 439.52 458.26 440.62 459.68L439.02 460.9C438.18 459.84 436.92 459.28 435.6 459.28C432.44 459.28 430.32 461.82 430.32 465.04C430.32 468.08 432.38 470.56 435.6 470.56C437.24 470.56 438.44 469.86 439.3 468.66L440.92 469.88C439.82 471.36 437.84 472.36 435.56 472.36C431 472.36 428.28 468.52 428.28 465.02C428.28 460.74 431.2 457.48 435.66 457.48ZM449.742 457.48C451.742 457.48 453.602 458.26 454.702 459.68L453.102 460.9C452.262 459.84 451.002 459.28 449.682 459.28C446.522 459.28 444.402 461.82 444.402 465.04C444.402 468.08 446.462 470.56 449.682 470.56C451.322 470.56 452.522 469.86 453.382 468.66L455.002 469.88C453.902 471.36 451.922 472.36 449.642 472.36C445.082 472.36 442.362 468.52 442.362 465.02C442.362 460.74 445.282 457.48 449.742 457.48ZM461.064 457.6C464.244 457.6 465.944 460.38 465.944 464.92C465.944 469.42 464.244 472.24 461.064 472.24C457.824 472.24 456.184 469.28 456.184 464.92C456.184 460.42 457.844 457.6 461.064 457.6ZM458.104 464.92C458.104 468.56 459.144 470.56 461.064 470.56C462.964 470.56 464.024 468.58 464.024 464.92C464.024 461.24 463.004 459.28 461.044 459.28C459.184 459.28 458.104 461.12 458.104 464.92ZM472.177 457.6C475.357 457.6 477.057 460.38 477.057 464.92C477.057 469.42 475.357 472.24 472.177 472.24C468.937 472.24 467.297 469.28 467.297 464.92C467.297 460.42 468.957 457.6 472.177 457.6ZM469.217 464.92C469.217 468.56 470.257 470.56 472.177 470.56C474.077 470.56 475.137 468.58 475.137 464.92C475.137 461.24 474.117 459.28 472.157 459.28C470.297 459.28 469.217 461.12 469.217 464.92Z" fill="#1E4621"/>
<rect x="656.5" y="371.5" width="249" height="124" rx="9.5" fill="#C2FEAE"/>
<rect x="656.5" y="371.5" width="249" height="124" rx="9.5" stroke="#1E4621"/>
<path d="M678.4 467.92H676.5V466.36H678.62L679.02 463.48H677.12V461.92H679.24L679.8 457.84H681.38L680.82 461.92H683.14L683.7 457.84H685.28L684.72 461.92H686.62V463.48H684.5L684.1 466.36H686V467.92H683.88L683.32 472H681.74L682.3 467.92H679.98L679.42 472H677.84L678.4 467.92ZM680.6 463.48L680.2 466.36H682.52L682.92 463.48H680.6ZM695.433 457.48C697.433 457.48 699.293 458.26 700.393 459.68L698.793 460.9C697.953 459.84 696.693 459.28 695.373 459.28C692.213 459.28 690.093 461.82 690.093 465.04C690.093 468.08 692.153 470.56 695.373 470.56C697.013 470.56 698.213 469.86 699.073 468.66L700.693 469.88C699.593 471.36 697.613 472.36 695.333 472.36C690.773 472.36 688.053 468.52 688.053 465.02C688.053 460.74 690.973 457.48 695.433 457.48ZM706.935 457.48C709.595 457.48 711.395 459 711.395 461.4C711.395 462.82 710.835 464 708.975 465.78L704.275 470.32H711.395V472H702.115V469.96L707.635 464.48C708.595 463.54 709.355 462.6 709.355 461.42C709.355 460.1 708.315 459.16 706.915 459.16C705.515 459.16 704.575 459.98 704.335 461.34L702.255 461.16C702.615 458.8 704.375 457.48 706.935 457.48ZM714.129 472V457.84H723.029V459.64H716.049V464.08H722.549V465.88H716.049V472H714.129ZM725.613 472V457.84H734.753V459.64H727.533V463.86H734.253V465.66H727.533V470.2H735.113V472H725.613ZM738.28 472H736.04L742.28 457.84H744.02L750.08 472H747.84L746.42 468.5H739.68L738.28 472ZM743.04 460.32L740.36 466.82H745.72L743.08 460.32H743.04ZM751.922 472V457.84H761.062V459.64H753.842V463.86H760.562V465.66H753.842V470.2H761.422V472H751.922Z" fill="#1E4621"/>
<path d="M96.41 509.11C97.925 509.11 98.855 509.56 99.47 510.325L98.3 511.39C97.94 510.835 97.25 510.46 96.395 510.46C94.76 510.46 94.34 511.48 94.34 512.095C94.34 512.995 94.955 513.475 95.93 513.775L97.265 514.21C98.75 514.69 99.575 515.485 99.575 516.985C99.575 518.95 98.03 520.27 95.885 520.27C94.385 520.27 93.185 519.73 92.495 518.8L93.68 517.78C94.145 518.5 95 518.92 95.93 518.92C96.995 518.92 98.045 518.245 98.045 517.15C98.045 516.415 97.61 515.95 96.32 515.545L95.375 515.23C93.92 514.765 92.81 514 92.81 512.095C92.81 510.685 94.01 509.11 96.41 509.11ZM103.47 520.18C102.045 520.18 101.01 519.37 101.01 518.05C101.01 516.625 102.12 515.59 104.91 515.59H105.915V515.335C105.915 514.375 105.21 513.79 104.205 513.79C103.44 513.79 102.975 513.97 102.195 514.6L101.385 513.76C102.135 513.07 103.185 512.71 104.205 512.71C106.35 512.71 107.175 513.925 107.175 515.035V518.845C107.175 519.055 107.19 519.625 107.235 520H106.035C106.005 519.64 105.99 519.34 105.99 518.92H105.96C105.345 519.835 104.55 520.18 103.47 520.18ZM105.15 516.58C102.96 516.58 102.36 517.255 102.36 517.945C102.36 518.68 102.855 519.1 103.89 519.1C105.105 519.1 105.915 518.35 105.915 516.97V516.58H105.15ZM110.588 508.66V520H109.238V508.66H110.588ZM115.992 512.71C118.092 512.71 119.457 514.105 119.457 516.565V516.94H113.757C113.757 518.17 114.912 519.01 116.157 519.01C116.982 519.01 117.582 518.59 118.107 517.945L119.127 518.725C118.362 519.7 117.342 520.18 115.977 520.18C113.862 520.18 112.317 518.71 112.317 516.445C112.317 514.345 113.832 512.71 115.992 512.71ZM118.017 515.86C117.972 514.525 117.222 513.79 115.962 513.79C114.537 513.79 113.757 515.005 113.757 515.86H118.017ZM122.422 520H121.072V512.89H122.332V514H122.362C122.647 513.34 123.592 512.71 124.642 512.71C125.692 512.71 126.397 513.145 126.862 514.03C127.312 513.205 128.182 512.71 129.112 512.71C130.912 512.71 131.812 513.775 131.812 515.8V520H130.462V515.965C130.462 514.57 129.967 513.97 128.932 513.97C127.717 513.97 127.117 514.765 127.117 516.055V520H125.767V516.175C125.767 514.495 125.272 513.97 124.267 513.97C123.157 513.97 122.422 514.9 122.422 516.25V520Z" fill="#1E4621"/>
<path d="M375.365 520V509.38H376.805V513.97H376.925L381.62 509.38H383.63L378.5 514.285L383.975 520H381.875L376.925 514.69H376.805V520H375.365ZM388.002 512.71C390.102 512.71 391.467 514.105 391.467 516.565V516.94H385.767C385.767 518.17 386.922 519.01 388.167 519.01C388.992 519.01 389.592 518.59 390.117 517.945L391.137 518.725C390.372 519.7 389.352 520.18 387.987 520.18C385.872 520.18 384.327 518.71 384.327 516.445C384.327 514.345 385.842 512.71 388.002 512.71ZM390.027 515.86C389.982 514.525 389.232 513.79 387.972 513.79C386.547 513.79 385.767 515.005 385.767 515.86H390.027ZM394.537 508.66V520H393.187V508.66H394.537ZM398.14 508.66V520H396.79V508.66H398.14ZM399.434 512.89H400.994L403.109 518.44H403.139L405.149 512.89H406.604L403.244 521.5C402.749 522.79 402.269 523.6 400.799 523.6C400.379 523.6 399.974 523.555 399.599 523.405L399.764 522.19C400.034 522.28 400.304 522.34 400.574 522.34C401.414 522.34 401.684 521.905 401.969 521.155L402.389 520.045L399.434 512.89ZM417.198 509.11C418.953 509.11 420.243 509.545 421.143 510.49L420.123 511.585C419.253 510.745 418.233 510.46 417.183 510.46C414.843 510.46 413.178 512.26 413.178 514.69C413.178 517.015 414.873 518.92 417.303 518.92C418.308 518.92 419.253 518.74 419.913 518.365V515.41H417.558V514.06H421.353V519.295C420.348 519.91 418.698 520.27 417.333 520.27C413.913 520.27 411.648 517.885 411.648 514.69C411.648 511.555 413.943 509.11 417.198 509.11ZM423.638 520V512.89H424.988V513.985H425.018C425.378 513.22 426.263 512.71 427.148 512.71C427.373 512.71 427.598 512.74 427.748 512.8L427.688 514.255C427.463 514.195 427.253 514.15 427.013 514.15C425.678 514.15 424.988 514.93 424.988 516.37V520H423.638ZM432.181 512.71C434.281 512.71 435.646 514.105 435.646 516.565V516.94H429.946C429.946 518.17 431.101 519.01 432.346 519.01C433.171 519.01 433.771 518.59 434.296 517.945L435.316 518.725C434.551 519.7 433.531 520.18 432.166 520.18C430.051 520.18 428.506 518.71 428.506 516.445C428.506 514.345 430.021 512.71 432.181 512.71ZM434.206 515.86C434.161 514.525 433.411 513.79 432.151 513.79C430.726 513.79 429.946 515.005 429.946 515.86H434.206ZM440.516 512.71C442.616 512.71 443.981 514.105 443.981 516.565V516.94H438.281C438.281 518.17 439.436 519.01 440.681 519.01C441.506 519.01 442.106 518.59 442.631 517.945L443.651 518.725C442.886 519.7 441.866 520.18 440.501 520.18C438.386 520.18 436.841 518.71 436.841 516.445C436.841 514.345 438.356 512.71 440.516 512.71ZM442.541 515.86C442.496 514.525 441.746 513.79 440.486 513.79C439.061 513.79 438.281 515.005 438.281 515.86H442.541ZM445.596 512.89H446.946V513.985H446.976C447.351 513.19 448.281 512.71 449.316 512.71C450.906 512.71 451.896 513.76 451.896 515.365V520H450.546V515.755C450.546 514.66 449.946 513.97 448.926 513.97C447.681 513.97 446.946 514.855 446.946 516.28V520H445.596V512.89Z" fill="#1E4621"/>
<path d="M656.165 510.73V509.38H664.445V510.73H661.025V520H659.585V510.73H656.165ZM667.218 512.71C669.318 512.71 670.683 514.105 670.683 516.565V516.94H664.983C664.983 518.17 666.138 519.01 667.383 519.01C668.208 519.01 668.808 518.59 669.333 517.945L670.353 518.725C669.588 519.7 668.568 520.18 667.203 520.18C665.088 520.18 663.543 518.71 663.543 516.445C663.543 514.345 665.058 512.71 667.218 512.71ZM669.243 515.86C669.198 514.525 668.448 513.79 667.188 513.79C665.763 513.79 664.983 515.005 664.983 515.86H669.243ZM674.413 520.18C672.988 520.18 671.953 519.37 671.953 518.05C671.953 516.625 673.063 515.59 675.853 515.59H676.858V515.335C676.858 514.375 676.153 513.79 675.148 513.79C674.383 513.79 673.918 513.97 673.138 514.6L672.328 513.76C673.078 513.07 674.128 512.71 675.148 512.71C677.293 512.71 678.118 513.925 678.118 515.035V518.845C678.118 519.055 678.133 519.625 678.178 520H676.978C676.948 519.64 676.933 519.34 676.933 518.92H676.903C676.288 519.835 675.493 520.18 674.413 520.18ZM676.093 516.58C673.903 516.58 673.303 517.255 673.303 517.945C673.303 518.68 673.798 519.1 674.833 519.1C676.048 519.1 676.858 518.35 676.858 516.97V516.58H676.093ZM689.486 509.11C691.241 509.11 692.531 509.545 693.431 510.49L692.411 511.585C691.541 510.745 690.521 510.46 689.471 510.46C687.131 510.46 685.466 512.26 685.466 514.69C685.466 517.015 687.161 518.92 689.591 518.92C690.596 518.92 691.541 518.74 692.201 518.365V515.41H689.846V514.06H693.641V519.295C692.636 519.91 690.986 520.27 689.621 520.27C686.201 520.27 683.936 517.885 683.936 514.69C683.936 511.555 686.231 509.11 689.486 509.11ZM695.926 520V512.89H697.276V513.985H697.306C697.666 513.22 698.551 512.71 699.436 512.71C699.661 512.71 699.886 512.74 700.036 512.8L699.976 514.255C699.751 514.195 699.541 514.15 699.301 514.15C697.966 514.15 697.276 514.93 697.276 516.37V520H695.926ZM704.469 512.71C706.569 512.71 707.934 514.105 707.934 516.565V516.94H702.234C702.234 518.17 703.389 519.01 704.634 519.01C705.459 519.01 706.059 518.59 706.584 517.945L707.604 518.725C706.839 519.7 705.819 520.18 704.454 520.18C702.339 520.18 700.794 518.71 700.794 516.445C700.794 514.345 702.309 512.71 704.469 512.71ZM706.494 515.86C706.449 514.525 705.699 513.79 704.439 513.79C703.014 513.79 702.234 515.005 702.234 515.86H706.494ZM712.804 512.71C714.904 512.71 716.269 514.105 716.269 516.565V516.94H710.569C710.569 518.17 711.724 519.01 712.969 519.01C713.794 519.01 714.394 518.59 714.919 517.945L715.939 518.725C715.174 519.7 714.154 520.18 712.789 520.18C710.674 520.18 709.129 518.71 709.129 516.445C709.129 514.345 710.644 512.71 712.804 512.71ZM714.829 515.86C714.784 514.525 714.034 513.79 712.774 513.79C711.349 513.79 710.569 515.005 710.569 515.86H714.829ZM717.884 512.89H719.234V513.985H719.264C719.639 513.19 720.569 512.71 721.604 512.71C723.194 512.71 724.184 513.76 724.184 515.365V520H722.834V515.755C722.834 514.66 722.234 513.97 721.214 513.97C719.969 513.97 719.234 514.855 719.234 516.28V520H717.884V512.89Z" fill="#1E4621"/>
<rect x="92.5" y="555.5" width="249" height="124" rx="9.5" fill="#005F07"/>
<rect x="92.5" y="555.5" width="249" height="124" rx="9.5" stroke="#1E4621"/>
<path d="M114.4 651.92H112.5V650.36H114.62L115.02 647.48H113.12V645.92H115.24L115.8 641.84H117.38L116.82 645.92H119.14L119.7 641.84H121.28L120.72 645.92H122.62V647.48H120.5L120.1 650.36H122V651.92H119.88L119.32 656H117.74L118.3 651.92H115.98L115.42 656H113.84L114.4 651.92ZM116.6 647.48L116.2 650.36H118.52L118.92 647.48H116.6ZM128.673 641.6C131.853 641.6 133.553 644.38 133.553 648.92C133.553 653.42 131.853 656.24 128.673 656.24C125.433 656.24 123.793 653.28 123.793 648.92C123.793 644.42 125.453 641.6 128.673 641.6ZM125.713 648.92C125.713 652.56 126.753 654.56 128.673 654.56C130.573 654.56 131.633 652.58 131.633 648.92C131.633 645.24 130.613 643.28 128.653 643.28C126.793 643.28 125.713 645.12 125.713 648.92ZM139.787 641.6C142.967 641.6 144.667 644.38 144.667 648.92C144.667 653.42 142.967 656.24 139.787 656.24C136.547 656.24 134.907 653.28 134.907 648.92C134.907 644.42 136.567 641.6 139.787 641.6ZM136.827 648.92C136.827 652.56 137.867 654.56 139.787 654.56C141.687 654.56 142.747 652.58 142.747 648.92C142.747 645.24 141.727 643.28 139.767 643.28C137.907 643.28 136.827 645.12 136.827 648.92ZM154.76 641.84V643.64H149.02L148.96 647.18C149.3 647.02 150.32 646.88 150.86 646.88C153.28 646.88 155.26 648.54 155.26 651.56C155.26 654.34 153.08 656.24 150.28 656.24C148.34 656.24 146.66 655.2 146.02 653.38L147.96 652.72C148.46 654.02 149.32 654.56 150.58 654.56C152.12 654.56 153.34 653.44 153.34 651.66C153.34 649.7 152.02 648.56 149.92 648.56C149.2 648.56 147.96 648.84 147 649.3L147.16 641.84H154.76ZM158.273 656V641.84H167.173V643.64H160.193V648.08H166.693V649.88H160.193V656H158.273ZM173.498 641.6C176.678 641.6 178.378 644.38 178.378 648.92C178.378 653.42 176.678 656.24 173.498 656.24C170.258 656.24 168.618 653.28 168.618 648.92C168.618 644.42 170.278 641.6 173.498 641.6ZM170.538 648.92C170.538 652.56 171.578 654.56 173.498 654.56C175.398 654.56 176.458 652.58 176.458 648.92C176.458 645.24 175.438 643.28 173.478 643.28C171.618 643.28 170.538 645.12 170.538 648.92ZM188.791 641.84V643.48L183.151 656H180.991L186.731 643.52H179.891V641.84H188.791Z" fill="white"/>
<rect x="374.5" y="555.5" width="249" height="124" rx="9.5" fill="#546B5E"/>
<rect x="374.5" y="555.5" width="249" height="124" rx="9.5" stroke="#1E4621"/>
<path d="M396.4 651.92H394.5V650.36H396.62L397.02 647.48H395.12V645.92H397.24L397.8 641.84H399.38L398.82 645.92H401.14L401.7 641.84H403.28L402.72 645.92H404.62V647.48H402.5L402.1 650.36H404V651.92H401.88L401.32 656H399.74L400.3 651.92H397.98L397.42 656H395.84L396.4 651.92ZM398.6 647.48L398.2 650.36H400.52L400.92 647.48H398.6ZM414.533 641.84V643.64H408.793L408.733 647.18C409.073 647.02 410.093 646.88 410.633 646.88C413.053 646.88 415.033 648.54 415.033 651.56C415.033 654.34 412.853 656.24 410.053 656.24C408.113 656.24 406.433 655.2 405.793 653.38L407.733 652.72C408.233 654.02 409.093 654.56 410.353 654.56C411.893 654.56 413.113 653.44 413.113 651.66C413.113 649.7 411.793 648.56 409.693 648.56C408.973 648.56 407.733 648.84 406.773 649.3L406.933 641.84H414.533ZM416.907 652.88V650.92L422.547 641.84H424.867V651.2H426.867V652.88H424.867V656H422.947V652.88H416.907ZM422.907 644.12L418.587 651.2H422.947V644.12H422.907ZM435.3 641.84L431.74 647.32H431.82C432.28 647.1 432.8 647 433.38 647C435.32 647 437.76 648.3 437.76 651.48C437.76 654.4 435.78 656.24 432.9 656.24C430.16 656.24 428.04 654.36 428.04 651.68C428.04 650.02 428.5 649.04 429.44 647.52L433.04 641.84H435.3ZM429.96 651.62C429.96 653.36 431.16 654.56 432.9 654.56C434.62 654.56 435.84 653.38 435.84 651.62C435.84 650.14 434.9 648.68 432.88 648.68C431.22 648.68 429.96 649.82 429.96 651.62ZM440.273 656V641.84H445.273C447.473 641.84 449.493 642.9 449.493 645.38C449.493 646.86 448.653 647.96 447.053 648.5V648.54H447.073C449.293 648.78 450.113 650.72 450.113 652.06C450.113 654.5 448.013 656 445.213 656H440.273ZM442.193 654.32H445.093C446.733 654.32 448.073 653.56 448.073 651.92C448.073 650.32 446.953 649.4 445.053 649.4H442.193V654.32ZM442.193 647.72H444.873C446.473 647.72 447.453 646.96 447.453 645.6C447.453 644.32 446.573 643.52 445.273 643.52H442.193V647.72ZM460.471 641.84V643.64H454.731L454.671 647.18C455.011 647.02 456.031 646.88 456.571 646.88C458.991 646.88 460.971 648.54 460.971 651.56C460.971 654.34 458.791 656.24 455.991 656.24C454.051 656.24 452.371 655.2 451.731 653.38L453.671 652.72C454.171 654.02 455.031 654.56 456.291 654.56C457.831 654.56 459.051 653.44 459.051 651.66C459.051 649.7 457.731 648.56 455.631 648.56C454.911 648.56 453.671 648.84 452.711 649.3L452.871 641.84H460.471ZM463.984 656V641.84H473.124V643.64H465.904V647.86H472.624V649.66H465.904V654.2H473.484V656H463.984Z" fill="white"/>
<rect x="656.5" y="555.5" width="249" height="124" rx="9.5" fill="#E5EDE7"/>
<rect x="656.5" y="555.5" width="249" height="124" rx="9.5" stroke="#1E4621"/>
<path d="M678.4 651.92H676.5V650.36H678.62L679.02 647.48H677.12V645.92H679.24L679.8 641.84H681.38L680.82 645.92H683.14L683.7 641.84H685.28L684.72 645.92H686.62V647.48H684.5L684.1 650.36H686V651.92H683.88L683.32 656H681.74L682.3 651.92H679.98L679.42 656H677.84L678.4 651.92ZM680.6 647.48L680.2 650.36H682.52L682.92 647.48H680.6ZM688.933 656V641.84H698.073V643.64H690.853V647.86H697.573V649.66H690.853V654.2H698.433V656H688.933ZM708.76 641.84V643.64H703.02L702.96 647.18C703.3 647.02 704.32 646.88 704.86 646.88C707.28 646.88 709.26 648.54 709.26 651.56C709.26 654.34 707.08 656.24 704.28 656.24C702.34 656.24 700.66 655.2 700.02 653.38L701.96 652.72C702.46 654.02 703.32 654.56 704.58 654.56C706.12 654.56 707.34 653.44 707.34 651.66C707.34 649.7 706.02 648.56 703.92 648.56C703.2 648.56 701.96 648.84 701 649.3L701.16 641.84H708.76ZM712.273 656V641.84H721.413V643.64H714.193V647.86H720.913V649.66H714.193V654.2H721.773V656H712.273ZM729.22 641.84C734.32 641.84 736.56 645.44 736.56 648.92C736.56 652.98 733.38 656 728.92 656H724.18V641.84H729.22ZM728.62 654.2C731.3 654.2 734.52 652.74 734.52 648.92C734.52 646.22 732.82 643.64 729.08 643.64H726.1V654.2H728.62ZM739.324 656V641.84H748.464V643.64H741.244V647.86H747.964V649.66H741.244V654.2H748.824V656H739.324ZM759.47 641.84V643.48L753.83 656H751.67L757.41 643.52H750.57V641.84H759.47Z" fill="#1E4621"/>
<path d="M94.805 704H93.365V693.38H97.175C99.215 693.38 100.505 694.445 100.505 696.35C100.505 698.27 99.185 699.32 97.175 699.32H94.805V704ZM94.805 694.64V698.06H96.755C98.24 698.06 98.975 697.52 98.975 696.35C98.975 695.195 98.225 694.64 96.755 694.64H94.805ZM101.912 704V696.89H103.262V697.985H103.292C103.652 697.22 104.537 696.71 105.422 696.71C105.647 696.71 105.872 696.74 106.022 696.8L105.962 698.255C105.737 698.195 105.527 698.15 105.287 698.15C103.952 698.15 103.262 698.93 103.262 700.37V704H101.912ZM108.243 693.35C108.783 693.35 109.233 693.8 109.233 694.34C109.233 694.895 108.768 695.33 108.243 695.33C107.688 695.33 107.253 694.895 107.253 694.34C107.253 693.785 107.718 693.35 108.243 693.35ZM108.918 696.89V704H107.568V696.89H108.918ZM112.417 704H111.067V696.89H112.327V698H112.357C112.642 697.34 113.587 696.71 114.637 696.71C115.687 696.71 116.392 697.145 116.857 698.03C117.307 697.205 118.177 696.71 119.107 696.71C120.907 696.71 121.807 697.775 121.807 699.8V704H120.457V699.965C120.457 698.57 119.962 697.97 118.927 697.97C117.712 697.97 117.112 698.765 117.112 700.055V704H115.762V700.175C115.762 698.495 115.267 697.97 114.262 697.97C113.152 697.97 112.417 698.9 112.417 700.25V704ZM125.955 704.18C124.53 704.18 123.495 703.37 123.495 702.05C123.495 700.625 124.605 699.59 127.395 699.59H128.4V699.335C128.4 698.375 127.695 697.79 126.69 697.79C125.925 697.79 125.46 697.97 124.68 698.6L123.87 697.76C124.62 697.07 125.67 696.71 126.69 696.71C128.835 696.71 129.66 697.925 129.66 699.035V702.845C129.66 703.055 129.675 703.625 129.72 704H128.52C128.49 703.64 128.475 703.34 128.475 702.92H128.445C127.83 703.835 127.035 704.18 125.955 704.18ZM127.635 700.58C125.445 700.58 124.845 701.255 124.845 701.945C124.845 702.68 125.34 703.1 126.375 703.1C127.59 703.1 128.4 702.35 128.4 700.97V700.58H127.635ZM131.619 704V696.89H132.969V697.985H132.999C133.359 697.22 134.244 696.71 135.129 696.71C135.354 696.71 135.579 696.74 135.729 696.8L135.669 698.255C135.444 698.195 135.234 698.15 134.994 698.15C133.659 698.15 132.969 698.93 132.969 700.37V704H131.619ZM136.315 696.89H137.875L139.99 702.44H140.02L142.03 696.89H143.485L140.125 705.5C139.63 706.79 139.15 707.6 137.68 707.6C137.26 707.6 136.855 707.555 136.48 707.405L136.645 706.19C136.915 706.28 137.185 706.34 137.455 706.34C138.295 706.34 138.565 705.905 138.85 705.155L139.27 704.045L136.315 696.89ZM154.065 693.11C155.565 693.11 156.96 693.695 157.785 694.76L156.585 695.675C155.955 694.88 155.01 694.46 154.02 694.46C151.65 694.46 150.06 696.365 150.06 698.78C150.06 701.06 151.605 702.92 154.02 702.92C155.25 702.92 156.15 702.395 156.795 701.495L158.01 702.41C157.185 703.52 155.7 704.27 153.99 704.27C150.57 704.27 148.53 701.39 148.53 698.765C148.53 695.555 150.72 693.11 154.065 693.11ZM158.552 694.73V693.38H166.832V694.73H163.412V704H161.972V694.73H158.552ZM167.318 704H165.638L170.318 693.38H171.623L176.168 704H174.488L173.423 701.375H168.368L167.318 704ZM170.888 695.24L168.878 700.115H172.898L170.918 695.24H170.888ZM181.724 704V693.38H188.399V694.73H183.164V698.06H188.039V699.41H183.164V704H181.724ZM190.773 693.35C191.313 693.35 191.763 693.8 191.763 694.34C191.763 694.895 191.298 695.33 190.773 695.33C190.218 695.33 189.783 694.895 189.783 694.34C189.783 693.785 190.248 693.35 190.773 693.35ZM191.448 696.89V704H190.098V696.89H191.448ZM195.051 692.66V704H193.701V692.66H195.051ZM198.655 692.66V704H197.305V692.66H198.655Z" fill="#1E4621"/>
<path d="M374.165 694.73V693.38H382.445V694.73H379.025V704H377.585V694.73H374.165ZM385.218 696.71C387.318 696.71 388.683 698.105 388.683 700.565V700.94H382.983C382.983 702.17 384.138 703.01 385.383 703.01C386.208 703.01 386.808 702.59 387.333 701.945L388.353 702.725C387.588 703.7 386.568 704.18 385.203 704.18C383.088 704.18 381.543 702.71 381.543 700.445C381.543 698.345 383.058 696.71 385.218 696.71ZM387.243 699.86C387.198 698.525 386.448 697.79 385.188 697.79C383.763 697.79 382.983 699.005 382.983 699.86H387.243ZM391.033 704H389.368L392.248 700.205L389.728 696.89H391.468L393.193 699.41L394.888 696.89H396.523L394.093 700.205L396.973 704H395.233L393.133 701.015L391.033 704ZM398.602 698.06H397.042V696.89H398.602V694.895H399.952V696.89H401.887V698.06H399.952V701.48C399.952 702.395 400.132 702.92 400.972 702.92C401.272 702.92 401.662 702.875 401.932 702.71V703.94C401.677 704.09 401.092 704.18 400.702 704.18C398.617 704.18 398.602 702.83 398.602 701.855V698.06ZM404.978 704H403.628V692.66H404.978V697.91H405.008C405.488 697.16 406.493 696.71 407.483 696.71C409.598 696.71 411.098 698.24 411.098 700.445C411.098 702.545 409.688 704.18 407.498 704.18C406.523 704.18 405.533 703.745 405.008 702.98H404.978V704ZM404.978 700.445C404.978 701.915 405.908 702.92 407.318 702.92C408.728 702.92 409.658 701.9 409.658 700.445C409.658 698.945 408.698 697.97 407.303 697.97C405.938 697.97 404.978 698.945 404.978 700.445ZM416.233 696.71C418.243 696.71 420.013 698.27 420.013 700.445C420.013 702.515 418.348 704.18 416.233 704.18C414.178 704.18 412.453 702.56 412.453 700.445C412.453 698.375 414.118 696.71 416.233 696.71ZM413.893 700.445C413.893 701.93 414.838 702.92 416.233 702.92C417.643 702.92 418.573 701.915 418.573 700.445C418.573 698.945 417.613 697.97 416.218 697.97C414.838 697.97 413.893 698.99 413.893 700.445ZM422.44 704H420.775L423.655 700.205L421.135 696.89H422.875L424.6 699.41L426.295 696.89H427.93L425.5 700.205L428.38 704H426.64L424.54 701.015L422.44 704ZM438.878 693.11C441.953 693.11 444.413 695.375 444.413 698.69C444.413 701.81 442.133 704.27 438.878 704.27C435.773 704.27 433.343 701.945 433.343 698.69C433.343 695.495 435.698 693.11 438.878 693.11ZM434.873 698.69C434.873 701 436.433 702.92 438.878 702.92C441.203 702.92 442.883 701.105 442.883 698.69C442.883 696.35 441.308 694.46 438.863 694.46C436.553 694.46 434.873 696.275 434.873 698.69ZM446.138 696.89H447.488V701.15C447.488 702.26 448.103 702.92 449.108 702.92C450.368 702.92 451.088 702.02 451.088 700.61V696.89H452.438V704H451.088V702.905H451.058C450.683 703.7 449.768 704.18 448.718 704.18C447.143 704.18 446.138 703.13 446.138 701.525V696.89ZM454.998 698.06H453.438V696.89H454.998V694.895H456.348V696.89H458.283V698.06H456.348V701.48C456.348 702.395 456.528 702.92 457.368 702.92C457.668 702.92 458.058 702.875 458.328 702.71V703.94C458.073 704.09 457.488 704.18 457.098 704.18C455.013 704.18 454.998 702.83 454.998 701.855V698.06ZM461.48 692.66V704H460.13V692.66H461.48ZM464.408 693.35C464.948 693.35 465.398 693.8 465.398 694.34C465.398 694.895 464.933 695.33 464.408 695.33C463.853 695.33 463.418 694.895 463.418 694.34C463.418 693.785 463.883 693.35 464.408 693.35ZM465.083 696.89V704H463.733V696.89H465.083ZM467.232 696.89H468.582V697.985H468.612C468.987 697.19 469.917 696.71 470.952 696.71C472.542 696.71 473.532 697.76 473.532 699.365V704H472.182V699.755C472.182 698.66 471.582 697.97 470.562 697.97C469.317 697.97 468.582 698.855 468.582 700.28V704H467.232V696.89ZM478.822 696.71C480.922 696.71 482.287 698.105 482.287 700.565V700.94H476.587C476.587 702.17 477.742 703.01 478.987 703.01C479.812 703.01 480.412 702.59 480.937 701.945L481.957 702.725C481.192 703.7 480.172 704.18 478.807 704.18C476.692 704.18 475.147 702.71 475.147 700.445C475.147 698.345 476.662 696.71 478.822 696.71ZM480.847 699.86C480.802 698.525 480.052 697.79 478.792 697.79C477.367 697.79 476.587 699.005 476.587 699.86H480.847Z" fill="#1E4621"/>
<path d="M656.165 694.73V693.38H664.445V694.73H661.025V704H659.585V694.73H656.165ZM667.218 696.71C669.318 696.71 670.683 698.105 670.683 700.565V700.94H664.983C664.983 702.17 666.138 703.01 667.383 703.01C668.208 703.01 668.808 702.59 669.333 701.945L670.353 702.725C669.588 703.7 668.568 704.18 667.203 704.18C665.088 704.18 663.543 702.71 663.543 700.445C663.543 698.345 665.058 696.71 667.218 696.71ZM669.243 699.86C669.198 698.525 668.448 697.79 667.188 697.79C665.763 697.79 664.983 699.005 664.983 699.86H669.243ZM672.298 704V696.89H673.648V697.985H673.678C674.038 697.22 674.923 696.71 675.808 696.71C676.033 696.71 676.258 696.74 676.408 696.8L676.348 698.255C676.123 698.195 675.913 698.15 675.673 698.15C674.338 698.15 673.648 698.93 673.648 700.37V704H672.298ZM678.375 698.06H676.815V696.89H678.375V694.895H679.725V696.89H681.66V698.06H679.725V701.48C679.725 702.395 679.905 702.92 680.745 702.92C681.045 702.92 681.435 702.875 681.705 702.71V703.94C681.45 704.09 680.865 704.18 680.475 704.18C678.39 704.18 678.375 702.83 678.375 701.855V698.06ZM684.182 693.35C684.722 693.35 685.172 693.8 685.172 694.34C685.172 694.895 684.707 695.33 684.182 695.33C683.627 695.33 683.192 694.895 683.192 694.34C683.192 693.785 683.657 693.35 684.182 693.35ZM684.857 696.89V704H683.507V696.89H684.857ZM689.12 704.18C687.695 704.18 686.66 703.37 686.66 702.05C686.66 700.625 687.77 699.59 690.56 699.59H691.565V699.335C691.565 698.375 690.86 697.79 689.855 697.79C689.09 697.79 688.625 697.97 687.845 698.6L687.035 697.76C687.785 697.07 688.835 696.71 689.855 696.71C692 696.71 692.825 697.925 692.825 699.035V702.845C692.825 703.055 692.84 703.625 692.885 704H691.685C691.655 703.64 691.64 703.34 691.64 702.92H691.61C690.995 703.835 690.2 704.18 689.12 704.18ZM690.8 700.58C688.61 700.58 688.01 701.255 688.01 701.945C688.01 702.68 688.505 703.1 689.54 703.1C690.755 703.1 691.565 702.35 691.565 700.97V700.58H690.8ZM694.784 704V696.89H696.134V697.985H696.164C696.524 697.22 697.409 696.71 698.294 696.71C698.519 696.71 698.744 696.74 698.894 696.8L698.834 698.255C698.609 698.195 698.399 698.15 698.159 698.15C696.824 698.15 696.134 698.93 696.134 700.37V704H694.784ZM699.48 696.89H701.04L703.155 702.44H703.185L705.195 696.89H706.65L703.29 705.5C702.795 706.79 702.315 707.6 700.845 707.6C700.425 707.6 700.02 707.555 699.645 707.405L699.81 706.19C700.08 706.28 700.35 706.34 700.62 706.34C701.46 706.34 701.73 705.905 702.015 705.155L702.435 704.045L699.48 696.89Z" fill="#1E4621"/>
<path d="M95.366 140H93.638V127.256H98.21C100.424 127.256 102.206 128.336 102.206 130.82C102.206 132.224 101.216 133.916 99.092 134.186H99.074L102.692 140H100.532L97.292 134.384H95.366V140ZM95.366 128.768V132.872H97.706C99.488 132.872 100.37 132.224 100.37 130.82C100.37 129.434 99.47 128.768 97.706 128.768H95.366ZM108.134 131.252C110.654 131.252 112.292 132.926 112.292 135.878V136.328H105.452C105.452 137.804 106.838 138.812 108.332 138.812C109.322 138.812 110.042 138.308 110.672 137.534L111.896 138.47C110.978 139.64 109.754 140.216 108.116 140.216C105.578 140.216 103.724 138.452 103.724 135.734C103.724 133.214 105.542 131.252 108.134 131.252ZM110.564 135.032C110.51 133.43 109.61 132.548 108.098 132.548C106.388 132.548 105.452 134.006 105.452 135.032H110.564ZM115.85 140H114.23V131.468H115.742V132.8H115.778C116.12 132.008 117.254 131.252 118.514 131.252C119.774 131.252 120.62 131.774 121.178 132.836C121.718 131.846 122.762 131.252 123.878 131.252C126.038 131.252 127.118 132.53 127.118 134.96V140H125.498V135.158C125.498 133.484 124.904 132.764 123.662 132.764C122.204 132.764 121.484 133.718 121.484 135.266V140H119.864V135.41C119.864 133.394 119.27 132.764 118.064 132.764C116.732 132.764 115.85 133.88 115.85 135.5V140ZM132.096 140.216C130.386 140.216 129.144 139.244 129.144 137.66C129.144 135.95 130.476 134.708 133.824 134.708H135.03V134.402C135.03 133.25 134.184 132.548 132.978 132.548C132.06 132.548 131.502 132.764 130.566 133.52L129.594 132.512C130.494 131.684 131.754 131.252 132.978 131.252C135.552 131.252 136.542 132.71 136.542 134.042V138.614C136.542 138.866 136.56 139.55 136.614 140H135.174C135.138 139.568 135.12 139.208 135.12 138.704H135.084C134.346 139.802 133.392 140.216 132.096 140.216ZM134.112 135.896C131.484 135.896 130.764 136.706 130.764 137.534C130.764 138.416 131.358 138.92 132.6 138.92C134.058 138.92 135.03 138.02 135.03 136.364V135.896H134.112ZM139.828 127.22C140.476 127.22 141.016 127.76 141.016 128.408C141.016 129.074 140.458 129.596 139.828 129.596C139.162 129.596 138.64 129.074 138.64 128.408C138.64 127.742 139.198 127.22 139.828 127.22ZM140.638 131.468V140H139.018V131.468H140.638ZM143.216 131.468H144.836V132.782H144.872C145.322 131.828 146.438 131.252 147.68 131.252C149.588 131.252 150.776 132.512 150.776 134.438V140H149.156V134.906C149.156 133.592 148.436 132.764 147.212 132.764C145.718 132.764 144.836 133.826 144.836 135.536V140H143.216V131.468ZM157.124 131.252C159.644 131.252 161.282 132.926 161.282 135.878V136.328H154.442C154.442 137.804 155.828 138.812 157.322 138.812C158.312 138.812 159.032 138.308 159.662 137.534L160.886 138.47C159.968 139.64 158.744 140.216 157.106 140.216C154.568 140.216 152.714 138.452 152.714 135.734C152.714 133.214 154.532 131.252 157.124 131.252ZM159.554 135.032C159.5 133.43 158.6 132.548 157.088 132.548C155.378 132.548 154.442 134.006 154.442 135.032H159.554ZM167.144 140.216C164.624 140.216 162.806 138.38 162.806 135.734C162.806 133.088 164.624 131.252 167.144 131.252C168.314 131.252 169.502 131.774 170.114 132.692H170.15V126.392H171.77V140H170.15V138.776H170.114C169.484 139.694 168.332 140.216 167.144 140.216ZM164.534 135.734C164.534 137.516 165.668 138.704 167.342 138.704C169.034 138.704 170.15 137.498 170.15 135.734C170.15 133.934 168.998 132.764 167.324 132.764C165.668 132.764 164.534 133.952 164.534 135.734ZM179.864 132.872H177.992V131.468H179.864V129.074H181.484V131.468H183.806V132.872H181.484V136.976C181.484 138.074 181.7 138.704 182.708 138.704C183.068 138.704 183.536 138.65 183.86 138.452V139.928C183.554 140.108 182.852 140.216 182.384 140.216C179.882 140.216 179.864 138.596 179.864 137.426V132.872ZM187.516 140H185.896V126.392H187.516V132.782H187.552C188.002 131.828 189.118 131.252 190.36 131.252C192.25 131.252 193.456 132.494 193.456 134.438V140H191.836V134.906C191.836 133.592 191.116 132.764 189.892 132.764C188.398 132.764 187.516 133.826 187.516 135.536V140ZM199.804 131.252C202.324 131.252 203.962 132.926 203.962 135.878V136.328H197.122C197.122 137.804 198.508 138.812 200.002 138.812C200.992 138.812 201.712 138.308 202.342 137.534L203.566 138.47C202.648 139.64 201.424 140.216 199.786 140.216C197.248 140.216 195.394 138.452 195.394 135.734C195.394 133.214 197.212 131.252 199.804 131.252ZM202.234 135.032C202.18 133.43 201.28 132.548 199.768 132.548C198.058 132.548 197.122 134.006 197.122 135.032H202.234ZM213.79 131.252C215.086 131.252 216.166 131.756 216.706 132.656L215.446 133.61C215.05 133.142 214.51 132.764 213.7 132.764C212.89 132.764 212.278 133.16 212.278 133.718C212.278 134.42 212.962 134.744 213.952 134.942C215.986 135.338 216.94 135.986 216.94 137.534C216.94 139.406 215.248 140.216 213.466 140.216C211.9 140.216 210.928 139.73 210.19 138.704L211.414 137.696C212.152 138.452 212.782 138.704 213.484 138.704C214.384 138.704 215.212 138.326 215.212 137.624C215.212 136.976 214.618 136.634 213.592 136.4C211.594 135.986 210.55 135.428 210.55 133.88C210.55 132.116 212.17 131.252 213.79 131.252ZM221.446 140.216C219.736 140.216 218.494 139.244 218.494 137.66C218.494 135.95 219.826 134.708 223.174 134.708H224.38V134.402C224.38 133.25 223.534 132.548 222.328 132.548C221.41 132.548 220.852 132.764 219.916 133.52L218.944 132.512C219.844 131.684 221.104 131.252 222.328 131.252C224.902 131.252 225.892 132.71 225.892 134.042V138.614C225.892 138.866 225.91 139.55 225.964 140H224.524C224.488 139.568 224.47 139.208 224.47 138.704H224.434C223.696 139.802 222.742 140.216 221.446 140.216ZM223.462 135.896C220.834 135.896 220.114 136.706 220.114 137.534C220.114 138.416 220.708 138.92 221.95 138.92C223.408 138.92 224.38 138.02 224.38 136.364V135.896H223.462ZM229.862 140H228.242V131.468H229.754V132.8H229.79C230.132 132.008 231.266 131.252 232.526 131.252C233.786 131.252 234.632 131.774 235.19 132.836C235.73 131.846 236.774 131.252 237.89 131.252C240.05 131.252 241.13 132.53 241.13 134.96V140H239.51V135.158C239.51 133.484 238.916 132.764 237.674 132.764C236.216 132.764 235.496 133.718 235.496 135.266V140H233.876V135.41C233.876 133.394 233.282 132.764 232.076 132.764C230.744 132.764 229.862 133.88 229.862 135.5V140ZM247.476 131.252C249.996 131.252 251.634 132.926 251.634 135.878V136.328H244.794C244.794 137.804 246.18 138.812 247.674 138.812C248.664 138.812 249.384 138.308 250.014 137.534L251.238 138.47C250.32 139.64 249.096 140.216 247.458 140.216C244.92 140.216 243.066 138.452 243.066 135.734C243.066 133.214 244.884 131.252 247.476 131.252ZM249.906 135.032C249.852 133.43 248.952 132.548 247.44 132.548C245.73 132.548 244.794 134.006 244.794 135.032H249.906Z" fill="#1E4621"/>
<path d="M92 142.25L252.354 142.25V143.15L92 143.15V142.25Z" fill="#1E4621"/>
<path d="M95.366 780H93.638V767.256H95.906L102.926 777.732H102.962V767.256H104.69V780H102.494L95.402 769.524H95.366V780ZM113.814 766.932C117.504 766.932 120.456 769.65 120.456 773.628C120.456 777.372 117.72 780.324 113.814 780.324C110.088 780.324 107.172 777.534 107.172 773.628C107.172 769.794 109.998 766.932 113.814 766.932ZM109.008 773.628C109.008 776.4 110.88 778.704 113.814 778.704C116.604 778.704 118.62 776.526 118.62 773.628C118.62 770.82 116.73 768.552 113.796 768.552C111.024 768.552 109.008 770.73 109.008 773.628ZM121.501 768.876V767.256H131.437V768.876H127.333V780H125.605V768.876H121.501ZM138.052 775.41V767.256H139.78V775.122C139.78 776.526 140.5 778.704 142.984 778.704C145.36 778.704 146.188 776.67 146.188 775.122V767.256H147.916V775.41C147.916 777.876 146.116 780.324 142.984 780.324C139.978 780.324 138.052 778.038 138.052 775.41ZM154.614 766.932C156.432 766.932 157.548 767.472 158.286 768.39L156.882 769.668C156.45 769.002 155.622 768.552 154.596 768.552C152.634 768.552 152.13 769.776 152.13 770.514C152.13 771.594 152.868 772.17 154.038 772.53L155.64 773.052C157.422 773.628 158.412 774.582 158.412 776.382C158.412 778.74 156.558 780.324 153.984 780.324C152.184 780.324 150.744 779.676 149.916 778.56L151.338 777.336C151.896 778.2 152.922 778.704 154.038 778.704C155.316 778.704 156.576 777.894 156.576 776.58C156.576 775.698 156.054 775.14 154.506 774.654L153.372 774.276C151.626 773.718 150.294 772.8 150.294 770.514C150.294 768.822 151.734 766.932 154.614 766.932ZM160.962 780V767.256H169.188V768.876H162.69V772.674H168.738V774.294H162.69V778.38H169.512V780H160.962ZM176.214 767.256C180.804 767.256 182.82 770.496 182.82 773.628C182.82 777.282 179.958 780 175.944 780H171.678V767.256H176.214ZM175.674 778.38C178.086 778.38 180.984 777.066 180.984 773.628C180.984 771.198 179.454 768.876 176.088 768.876H173.406V778.38H175.674ZM192.046 767.256V780H190.318V767.256H192.046ZM197.055 780H195.327V767.256H197.595L204.615 777.732H204.651V767.256H206.379V780H204.183L197.091 769.524H197.055V780ZM215.059 780H213.043L218.659 767.256H220.225L225.679 780H223.663L222.385 776.85H216.319L215.059 780ZM219.343 769.488L216.931 775.338H221.755L219.379 769.488H219.343ZM229.065 780H227.337V767.256H231.909C234.357 767.256 235.905 768.534 235.905 770.82C235.905 773.124 234.321 774.384 231.909 774.384H229.065V780ZM229.065 768.768V772.872H231.405C233.187 772.872 234.069 772.224 234.069 770.82C234.069 769.434 233.169 768.768 231.405 768.768H229.065ZM239.735 780H238.007V767.256H242.579C245.027 767.256 246.575 768.534 246.575 770.82C246.575 773.124 244.991 774.384 242.579 774.384H239.735V780ZM239.735 768.768V772.872H242.075C243.857 772.872 244.739 772.224 244.739 770.82C244.739 769.434 243.839 768.768 242.075 768.768H239.735Z" fill="#1E4621"/>
<path d="M92 782.25H247.043V783.15H92V782.25Z" fill="#1E4621"/>
<path d="M94.034 354H92.018L97.634 341.256H99.2L104.654 354H102.638L101.36 350.85H95.294L94.034 354ZM98.318 343.488L95.906 349.338H100.73L98.354 343.488H98.318ZM107.644 340.392V354H106.024V340.392H107.644ZM110.852 346.872H108.98V345.468H110.852V343.074H112.472V345.468H114.794V346.872H112.472V350.976C112.472 352.074 112.688 352.704 113.696 352.704C114.056 352.704 114.524 352.65 114.848 352.452V353.928C114.542 354.108 113.84 354.216 113.372 354.216C110.87 354.216 110.852 352.596 110.852 351.426V346.872ZM120.79 345.252C123.31 345.252 124.948 346.926 124.948 349.878V350.328H118.108C118.108 351.804 119.494 352.812 120.988 352.812C121.978 352.812 122.698 352.308 123.328 351.534L124.552 352.47C123.634 353.64 122.41 354.216 120.772 354.216C118.234 354.216 116.38 352.452 116.38 349.734C116.38 347.214 118.198 345.252 120.79 345.252ZM123.22 349.032C123.166 347.43 122.266 346.548 120.754 346.548C119.044 346.548 118.108 348.006 118.108 349.032H123.22ZM126.886 354V345.468H128.506V346.782H128.542C128.974 345.864 130.036 345.252 131.098 345.252C131.368 345.252 131.638 345.288 131.818 345.36L131.746 347.106C131.476 347.034 131.224 346.98 130.936 346.98C129.334 346.98 128.506 347.916 128.506 349.644V354H126.886ZM137.138 345.252C139.658 345.252 141.296 346.926 141.296 349.878V350.328H134.456C134.456 351.804 135.842 352.812 137.336 352.812C138.326 352.812 139.046 352.308 139.676 351.534L140.9 352.47C139.982 353.64 138.758 354.216 137.12 354.216C134.582 354.216 132.728 352.452 132.728 349.734C132.728 347.214 134.546 345.252 137.138 345.252ZM139.568 349.032C139.514 347.43 138.614 346.548 137.102 346.548C135.392 346.548 134.456 348.006 134.456 349.032H139.568ZM147.158 354.216C144.638 354.216 142.82 352.38 142.82 349.734C142.82 347.088 144.638 345.252 147.158 345.252C148.328 345.252 149.516 345.774 150.128 346.692H150.164V340.392H151.784V354H150.164V352.776H150.128C149.498 353.694 148.346 354.216 147.158 354.216ZM144.548 349.734C144.548 351.516 145.682 352.704 147.356 352.704C149.048 352.704 150.164 351.498 150.164 349.734C150.164 347.934 149.012 346.764 147.338 346.764C145.682 346.764 144.548 347.952 144.548 349.734ZM158.041 346.872V345.468H159.877V343.488C159.877 341.22 160.759 340.176 162.793 340.176C163.135 340.176 163.549 340.194 163.999 340.302L163.819 341.742C163.531 341.616 163.225 341.58 162.901 341.58C161.929 341.58 161.515 342.048 161.515 343.416V345.468H163.441V346.872H161.497V354H159.877V346.872H158.041ZM165.242 354V345.468H166.862V346.782H166.898C167.33 345.864 168.392 345.252 169.454 345.252C169.724 345.252 169.994 345.288 170.174 345.36L170.102 347.106C169.832 347.034 169.58 346.98 169.292 346.98C167.69 346.98 166.862 347.916 166.862 349.644V354H165.242ZM175.709 345.252C178.121 345.252 180.245 347.124 180.245 349.734C180.245 352.218 178.247 354.216 175.709 354.216C173.243 354.216 171.173 352.272 171.173 349.734C171.173 347.25 173.171 345.252 175.709 345.252ZM172.901 349.734C172.901 351.516 174.035 352.704 175.709 352.704C177.401 352.704 178.517 351.498 178.517 349.734C178.517 347.934 177.365 346.764 175.691 346.764C174.035 346.764 172.901 347.988 172.901 349.734ZM183.895 354H182.275V345.468H183.787V346.8H183.823C184.165 346.008 185.299 345.252 186.559 345.252C187.819 345.252 188.665 345.774 189.223 346.836C189.763 345.846 190.807 345.252 191.923 345.252C194.083 345.252 195.163 346.53 195.163 348.96V354H193.543V349.158C193.543 347.484 192.949 346.764 191.707 346.764C190.249 346.764 189.529 347.718 189.529 349.266V354H187.909V349.41C187.909 347.394 187.315 346.764 186.109 346.764C184.777 346.764 183.895 347.88 183.895 349.5V354ZM204.233 354H202.613V340.392H204.233V346.692H204.269C204.845 345.792 206.051 345.252 207.239 345.252C209.777 345.252 211.577 347.088 211.577 349.734C211.577 352.254 209.885 354.216 207.257 354.216C206.087 354.216 204.899 353.694 204.269 352.776H204.233V354ZM204.233 349.734C204.233 351.498 205.349 352.704 207.041 352.704C208.733 352.704 209.849 351.48 209.849 349.734C209.849 347.934 208.697 346.764 207.023 346.764C205.385 346.764 204.233 347.934 204.233 349.734ZM213.617 354V345.468H215.237V346.782H215.273C215.705 345.864 216.767 345.252 217.829 345.252C218.099 345.252 218.369 345.288 218.549 345.36L218.477 347.106C218.207 347.034 217.955 346.98 217.667 346.98C216.065 346.98 215.237 347.916 215.237 349.644V354H213.617ZM222.817 354.216C221.107 354.216 219.865 353.244 219.865 351.66C219.865 349.95 221.197 348.708 224.545 348.708H225.751V348.402C225.751 347.25 224.905 346.548 223.699 346.548C222.781 346.548 222.223 346.764 221.287 347.52L220.315 346.512C221.215 345.684 222.475 345.252 223.699 345.252C226.273 345.252 227.263 346.71 227.263 348.042V352.614C227.263 352.866 227.281 353.55 227.335 354H225.895C225.859 353.568 225.841 353.208 225.841 352.704H225.805C225.067 353.802 224.113 354.216 222.817 354.216ZM224.833 349.896C222.205 349.896 221.485 350.706 221.485 351.534C221.485 352.416 222.079 352.92 223.321 352.92C224.779 352.92 225.751 352.02 225.751 350.364V349.896H224.833ZM229.613 345.468H231.233V346.782H231.269C231.719 345.828 232.835 345.252 234.077 345.252C235.985 345.252 237.173 346.512 237.173 348.438V354H235.553V348.906C235.553 347.592 234.833 346.764 233.609 346.764C232.115 346.764 231.233 347.826 231.233 349.536V354H229.613V345.468ZM243.539 354.216C241.019 354.216 239.201 352.38 239.201 349.734C239.201 347.088 241.019 345.252 243.539 345.252C244.709 345.252 245.897 345.774 246.509 346.692H246.545V340.392H248.165V354H246.545V352.776H246.509C245.879 353.694 244.727 354.216 243.539 354.216ZM240.929 349.734C240.929 351.516 242.063 352.704 243.737 352.704C245.429 352.704 246.545 351.498 246.545 349.734C246.545 347.934 245.393 346.764 243.719 346.764C242.063 346.764 240.929 347.952 240.929 349.734ZM251.555 341.22C252.203 341.22 252.743 341.76 252.743 342.408C252.743 343.074 252.185 343.596 251.555 343.596C250.889 343.596 250.367 343.074 250.367 342.408C250.367 341.742 250.925 341.22 251.555 341.22ZM252.365 345.468V354H250.745V345.468H252.365ZM254.943 345.468H256.563V346.782H256.599C257.049 345.828 258.165 345.252 259.407 345.252C261.315 345.252 262.503 346.512 262.503 348.438V354H260.883V348.906C260.883 347.592 260.163 346.764 258.939 346.764C257.445 346.764 256.563 347.826 256.563 349.536V354H254.943V345.468ZM264.531 349.77C264.531 347.034 266.367 345.252 268.869 345.252C270.075 345.252 271.209 345.792 271.839 346.692H271.875V345.468H273.495V354C273.495 356.286 271.821 358.32 268.833 358.32C267.213 358.32 265.845 357.906 264.657 356.79L265.755 355.422C266.601 356.322 267.537 356.808 268.815 356.808C270.831 356.808 271.875 355.692 271.875 353.892V352.596H271.821C271.245 353.586 270.093 354.108 268.869 354.108C266.475 354.108 264.531 352.344 264.531 349.77ZM269.049 346.764C267.393 346.764 266.259 347.988 266.259 349.734C266.259 351.426 267.321 352.596 269.067 352.596C270.777 352.596 271.875 351.48 271.875 349.734C271.875 347.934 270.723 346.764 269.049 346.764ZM284.882 354.216C282.362 354.216 280.544 352.38 280.544 349.734C280.544 347.088 282.362 345.252 284.882 345.252C286.052 345.252 287.24 345.774 287.852 346.692H287.888V340.392H289.508V354H287.888V352.776H287.852C287.222 353.694 286.07 354.216 284.882 354.216ZM282.272 349.734C282.272 351.516 283.406 352.704 285.08 352.704C286.772 352.704 287.888 351.498 287.888 349.734C287.888 347.934 286.736 346.764 285.062 346.764C283.406 346.764 282.272 347.952 282.272 349.734ZM296.084 345.252C298.496 345.252 300.62 347.124 300.62 349.734C300.62 352.218 298.622 354.216 296.084 354.216C293.618 354.216 291.548 352.272 291.548 349.734C291.548 347.25 293.546 345.252 296.084 345.252ZM293.276 349.734C293.276 351.516 294.41 352.704 296.084 352.704C297.776 352.704 298.892 351.498 298.892 349.734C298.892 347.934 297.74 346.764 296.066 346.764C294.41 346.764 293.276 347.988 293.276 349.734ZM306.7 345.27C307.942 345.27 309.13 345.702 309.976 346.62L308.752 347.736C308.158 347.106 307.528 346.782 306.628 346.782C305.008 346.782 303.964 348.042 303.964 349.806C303.964 351.462 305.098 352.704 306.718 352.704C307.636 352.704 308.23 352.38 308.788 351.75L309.94 352.902C309.094 353.856 307.942 354.216 306.7 354.216C304.072 354.216 302.236 352.398 302.236 349.77C302.236 347.106 304.09 345.27 306.7 345.27ZM311.333 345.468H312.953V350.58C312.953 351.912 313.691 352.704 314.897 352.704C316.409 352.704 317.273 351.624 317.273 349.932V345.468H318.893V354H317.273V352.686H317.237C316.787 353.64 315.689 354.216 314.429 354.216C312.539 354.216 311.333 352.956 311.333 351.03V345.468ZM322.955 354H321.335V345.468H322.847V346.8H322.883C323.225 346.008 324.359 345.252 325.619 345.252C326.879 345.252 327.725 345.774 328.283 346.836C328.823 345.846 329.867 345.252 330.983 345.252C333.143 345.252 334.223 346.53 334.223 348.96V354H332.603V349.158C332.603 347.484 332.009 346.764 330.767 346.764C329.309 346.764 328.589 347.718 328.589 349.266V354H326.969V349.41C326.969 347.394 326.375 346.764 325.169 346.764C323.837 346.764 322.955 347.88 322.955 349.5V354ZM340.569 345.252C343.089 345.252 344.727 346.926 344.727 349.878V350.328H337.887C337.887 351.804 339.273 352.812 340.767 352.812C341.757 352.812 342.477 352.308 343.107 351.534L344.331 352.47C343.413 353.64 342.189 354.216 340.551 354.216C338.013 354.216 336.159 352.452 336.159 349.734C336.159 347.214 337.977 345.252 340.569 345.252ZM342.999 349.032C342.945 347.43 342.045 346.548 340.533 346.548C338.823 346.548 337.887 348.006 337.887 349.032H342.999ZM346.665 345.468H348.285V346.782H348.321C348.771 345.828 349.887 345.252 351.129 345.252C353.037 345.252 354.225 346.512 354.225 348.438V354H352.605V348.906C352.605 347.592 351.885 346.764 350.661 346.764C349.167 346.764 348.285 347.826 348.285 349.536V354H346.665V345.468ZM357.297 346.872H355.425V345.468H357.297V343.074H358.917V345.468H361.239V346.872H358.917V350.976C358.917 352.074 359.133 352.704 360.141 352.704C360.501 352.704 360.969 352.65 361.293 352.452V353.928C360.987 354.108 360.285 354.216 359.817 354.216C357.315 354.216 357.297 352.596 357.297 351.426V346.872Z" fill="#1E4621"/>
<path d="M92 356.25L362.103 356.25V357.15L92 357.15V356.25Z" fill="#1E4621"/>
<path d="M58.384 455.711C58.384 452.431 60.8 449.807 64.336 449.807C67.664 449.807 70.288 452.239 70.288 455.711C70.288 459.023 67.808 461.615 64.336 461.615C60.928 461.615 58.384 459.103 58.384 455.711ZM64.336 459.983C66.8 459.983 68.848 458.319 68.848 455.711C68.848 453.231 66.912 451.439 64.336 451.439C61.84 451.439 59.824 453.119 59.824 455.727C59.824 458.191 61.76 459.983 64.336 459.983ZM70 447.967L62.416 447.967L62.416 446.527L63.584 446.527L63.584 446.495C62.768 446.111 62.224 445.167 62.224 444.223C62.224 443.983 62.256 443.743 62.32 443.583L63.872 443.647C63.808 443.887 63.76 444.111 63.76 444.367C63.76 445.791 64.592 446.527 66.128 446.527L70 446.527L70 447.967ZM58.64 441.213C58.64 440.637 59.12 440.157 59.696 440.157C60.288 440.157 60.752 440.653 60.752 441.213C60.752 441.805 60.288 442.269 59.696 442.269C59.104 442.269 58.64 441.773 58.64 441.213ZM62.416 440.493L70 440.493L70 441.933L62.416 441.933L62.416 440.493ZM66.24 438.569C63.808 438.569 62.224 436.937 62.224 434.713C62.224 433.641 62.704 432.633 63.504 432.073L63.504 432.041L62.416 432.041L62.416 430.601L70 430.601C72.032 430.601 73.84 432.089 73.84 434.745C73.84 436.185 73.472 437.401 72.48 438.457L71.264 437.481C72.064 436.729 72.496 435.897 72.496 434.761C72.496 432.969 71.504 432.041 69.904 432.041L68.752 432.041L68.752 432.089C69.632 432.601 70.096 433.625 70.096 434.713C70.096 436.841 68.528 438.569 66.24 438.569ZM63.568 434.553C63.568 436.025 64.656 437.033 66.208 437.033C67.712 437.033 68.752 436.089 68.752 434.537C68.752 433.017 67.76 432.041 66.208 432.041C64.608 432.041 63.568 433.065 63.568 434.553ZM58.64 427.588C58.64 427.012 59.12 426.532 59.696 426.532C60.288 426.532 60.752 427.028 60.752 427.588C60.752 428.18 60.288 428.644 59.696 428.644C59.104 428.644 58.64 428.148 58.64 427.588ZM62.416 426.868L70 426.868L70 428.308L62.416 428.308L62.416 426.868ZM62.416 424.576L62.416 423.136L63.584 423.136L63.584 423.104C62.736 422.704 62.224 421.712 62.224 420.608C62.224 418.912 63.344 417.856 65.056 417.856L70 417.856L70 419.296L65.472 419.296C64.304 419.296 63.568 419.936 63.568 421.024C63.568 422.352 64.512 423.136 66.032 423.136L70 423.136L70 424.576L62.416 424.576ZM70.192 413.429C70.192 414.949 69.328 416.053 67.92 416.053C66.4 416.053 65.296 414.869 65.296 411.893L65.296 410.821L65.024 410.821C64 410.821 63.376 411.573 63.376 412.645C63.376 413.461 63.568 413.957 64.24 414.789L63.344 415.653C62.608 414.853 62.224 413.733 62.224 412.645C62.224 410.357 63.52 409.477 64.704 409.477L68.768 409.477C68.992 409.477 69.6 409.461 70 409.413L70 410.693C69.616 410.725 69.296 410.741 68.848 410.741L68.848 410.773C69.824 411.429 70.192 412.277 70.192 413.429ZM66.352 411.637C66.352 413.973 67.072 414.613 67.808 414.613C68.592 414.613 69.04 414.085 69.04 412.981C69.04 411.685 68.24 410.821 66.768 410.821L66.352 410.821L66.352 411.637ZM57.904 405.837L70 405.837L70 407.277L57.904 407.277L57.904 405.837Z" fill="#BDC8BF"/>
<path d="M70 631.391L70 632.927L58.672 632.927L58.672 630.911L67.984 624.671L67.984 624.639L58.672 624.639L58.672 623.103L70 623.103L70 625.055L60.688 631.359L60.688 631.391L70 631.391ZM62.224 617.088C62.224 614.848 63.712 613.392 66.336 613.392L66.736 613.392L66.736 619.472C68.048 619.472 68.944 618.24 68.944 616.912C68.944 616.032 68.496 615.392 67.808 614.832L68.64 613.744C69.68 614.56 70.192 615.648 70.192 617.104C70.192 619.36 68.624 621.008 66.208 621.008C63.968 621.008 62.224 619.392 62.224 617.088ZM65.584 614.928C64.16 614.976 63.376 615.776 63.376 617.12C63.376 618.64 64.672 619.472 65.584 619.472L65.584 614.928ZM70 610.086L62.416 612.582L62.416 610.966L68.08 609.254L68.08 609.222L62.416 607.414L62.416 605.894L68.08 603.974L68.08 603.942L62.416 602.31L62.416 600.79L70 603.238L70 604.694L64.336 606.694L64.336 606.726L70 608.534L70 610.086Z" fill="#BDC8BF"/>
<path d="M218 520C218 519.448 217.552 519 217 519C216.448 519 216 519.448 216 520H218ZM217 544L222.774 534H211.226L217 544ZM216 520V535H218V520H216Z" fill="#1E4621"/>
<path d="M500 520C500 519.448 499.552 519 499 519C498.448 519 498 519.448 498 520H500ZM499 544L504.774 534H493.226L499 544ZM498 520V535H500V520H498Z" fill="#1E4621"/>
<path d="M782 520C782 519.448 781.552 519 781 519C780.448 519 780 519.448 780 520H782ZM781 544L786.774 534H775.226L781 544ZM780 520V535H782V520H780Z" fill="#1E4621"/>
</svg>
